<svg width="226" height="64" viewBox="0 0 226 64" fill="none" xmlns="http://www.w3.org/2000/svg">
<path d="M24.946 24L23.9492 24.0797L24.0228 25H24.946V24ZM23.6143 21.2301L22.9674 21.9926L22.973 21.9974L23.6143 21.2301ZM17.5419 20.6087L17.8892 21.5465L17.8986 21.5429L17.5419 20.6087ZM16.1214 21.5852L15.3187 20.9889L15.3187 20.9889L16.1214 21.5852ZM15.642 23.0057L16.6406 23.0597L16.6414 23.0438L16.6418 23.0279L15.642 23.0057ZM15.8729 24.1953L14.9784 24.6425L14.9875 24.6606L14.9973 24.6784L15.8729 24.1953ZM16.7607 25.1364L16.184 25.9533L16.1921 25.9591L16.2003 25.9646L16.7607 25.1364ZM20.5426 26.4858L20.7522 25.508L20.7439 25.5063L20.5426 26.4858ZM23.5256 27.125L23.316 28.1028L23.3184 28.1033L23.5256 27.125ZM28.6925 28.8118L28.2542 29.7106L28.6925 28.8118ZM32.2081 31.2798L31.4876 31.9733L31.492 31.9778L32.2081 31.2798ZM34.2145 34.4403L33.2747 34.7821L33.2778 34.7904L34.2145 34.4403ZM34.8892 38.2756L35.8893 38.2805L35.8892 38.267L34.8892 38.2756ZM33.0959 44.348L33.9096 44.9292L33.9096 44.9292L33.0959 44.348ZM28.0178 48.13L27.6524 47.1991L27.6507 47.1998L28.0178 48.13ZM11.8423 48.0234L11.4717 48.9522L11.4734 48.9529L11.8423 48.0234ZM6.37358 43.7088L5.53918 44.26L5.54309 44.2658L6.37358 43.7088ZM4.42045 36.2159V35.2159H3.41656L3.42046 36.2198L4.42045 36.2159ZM13.7955 36.2159L14.794 36.1628L14.7437 35.2159H13.7955V36.2159ZM14.63 39.0213L13.7939 39.57L13.7939 39.57L14.63 39.0213ZM16.7251 40.7436L16.3269 41.6609L16.3312 41.6628L16.7251 40.7436ZM22.62 40.9389L22.9643 41.8778L22.9643 41.8778L22.62 40.9389ZM24.2358 39.8558L25.0186 40.4781L25.0186 40.4781L24.2358 39.8558ZM24.804 38.2756L25.8038 38.2956L25.8042 38.2749L25.8038 38.2543L24.804 38.2756ZM24.2536 36.8196L23.4748 37.4469L23.4844 37.4588L23.4943 37.4704L24.2536 36.8196ZM22.549 35.6832L22.1518 36.601L22.1634 36.6059L22.549 35.6832ZM19.3352 34.7244L19.5494 33.7476L19.5461 33.7469L19.3352 34.7244ZM15.7131 33.9432L15.5011 34.9205L15.5022 34.9207L15.7131 33.9432ZM8.09588 30.4453L7.43061 31.1919L7.43568 31.1964L8.09588 30.4453ZM5.34375 23.7159L6.34378 23.7201L6.34374 23.7108L5.34375 23.7159ZM7.19034 17.6612L6.37922 17.0763L6.37849 17.0774L7.19034 17.6612ZM12.3928 13.5952L11.993 12.6786L11.9912 12.6793L12.3928 13.5952ZM27.6626 13.6129L27.2458 14.5219L27.2458 14.5219L27.6626 13.6129ZM32.6165 17.7678L31.7776 18.3122L31.7819 18.3186L32.6165 17.7678ZM34.392 24V25H35.397L35.392 23.995L34.392 24ZM25.9428 23.9203C25.8302 22.5123 25.2859 21.3239 24.2557 20.4628L22.973 21.9974C23.529 22.4621 23.8725 23.1203 23.9492 24.0797L25.9428 23.9203ZM24.2613 20.4676C23.2222 19.5859 21.7544 19.2358 20.0455 19.2358V21.2358C21.5325 21.2358 22.444 21.5486 22.9674 21.9926L24.2613 20.4676ZM20.0455 19.2358C18.9567 19.2358 17.9898 19.3672 17.1852 19.6744L17.8986 21.5429C18.3961 21.3529 19.0982 21.2358 20.0455 21.2358V19.2358ZM17.1946 19.6709C16.4309 19.9538 15.7737 20.3765 15.3187 20.9889L16.9242 22.1815C17.0848 21.9654 17.3745 21.737 17.8892 21.5464L17.1946 19.6709ZM15.3187 20.9889C14.8832 21.5752 14.6586 22.2508 14.6423 22.9835L16.6418 23.0279C16.6492 22.6952 16.7442 22.4239 16.9242 22.1815L15.3187 20.9889ZM14.6435 22.9517C14.6115 23.5444 14.7154 24.1164 14.9784 24.6425L16.7673 23.7481C16.6753 23.564 16.6253 23.343 16.6406 23.0597L14.6435 22.9517ZM14.9973 24.6784C15.2761 25.1837 15.6888 25.6038 16.184 25.9533L17.3373 24.3194C17.0276 24.1008 16.8485 23.8935 16.7484 23.7122L14.9973 24.6784ZM16.2003 25.9646C16.6923 26.2974 17.2888 26.58 17.9679 26.8234L18.6429 24.9408C18.0673 24.7344 17.6339 24.5198 17.321 24.3081L16.2003 25.9646ZM17.9679 26.8234C18.6513 27.0684 19.4448 27.2811 20.3413 27.4653L20.7439 25.5063C19.9122 25.3354 19.2142 25.1456 18.6429 24.9408L17.9679 26.8234ZM20.3331 27.4636L23.316 28.1028L23.7351 26.1472L20.7521 25.508L20.3331 27.4636ZM23.3184 28.1033C25.2726 28.5171 26.9131 29.0567 28.2542 29.7106L29.1307 27.9129C27.6073 27.1701 25.8032 26.5851 23.7327 26.1467L23.3184 28.1033ZM28.2542 29.7106C29.6028 30.3682 30.6727 31.1266 31.4876 31.9733L32.9286 30.5864C31.9206 29.5391 30.6467 28.6521 29.1307 27.9129L28.2542 29.7106ZM31.492 31.9778C32.3092 32.8163 32.8993 33.7498 33.2747 34.7821L35.1543 34.0986C34.6774 32.7872 33.9299 31.6136 32.9242 30.5818L31.492 31.9778ZM33.2778 34.7904C33.6708 35.8419 33.8783 37.0034 33.8892 38.2841L35.8892 38.267C35.8764 36.7779 35.6342 35.3825 35.1512 34.0903L33.2778 34.7904ZM33.8892 38.2706C33.8782 40.492 33.3258 42.3056 32.2821 43.7668L33.9096 44.9292C35.2333 43.076 35.8765 40.8413 35.8892 38.2805L33.8892 38.2706ZM32.2821 43.7668C31.2281 45.2424 29.7037 46.394 27.6524 47.1991L28.3831 49.0608C30.7352 48.1377 32.5962 46.768 33.9096 44.9292L32.2821 43.7668ZM27.6507 47.1998C25.6076 48.006 23.1051 48.4261 20.1165 48.4261V50.4261C23.2831 50.4261 26.0482 49.9822 28.3848 49.0602L27.6507 47.1998ZM20.1165 48.4261C17.0522 48.4261 14.4244 47.9726 12.2113 47.094L11.4734 48.9529C13.9714 49.9446 16.8597 50.4261 20.1165 50.4261V48.4261ZM12.2129 47.0946C10.0408 46.228 8.38481 44.9121 7.20407 43.1518L5.54309 44.2658C6.96652 46.388 8.95636 47.9486 11.4717 48.9522L12.2129 47.0946ZM7.20796 43.1576C6.05286 41.4091 5.43175 39.1171 5.42045 36.212L3.42046 36.2198C3.43283 39.399 4.11381 42.1023 5.5392 44.26L7.20796 43.1576ZM4.42045 37.2159H13.7955V35.2159H4.42045V37.2159ZM12.7969 36.269C12.8633 37.518 13.1797 38.634 13.7939 39.57L15.466 38.4726C15.0859 37.8934 14.846 37.1392 14.794 36.1628L12.7969 36.269ZM13.7939 39.57C14.4068 40.5039 15.2639 41.1993 16.3269 41.6609L17.1234 39.8263C16.3871 39.5066 15.8474 39.0539 15.466 38.4726L13.7939 39.57ZM16.3312 41.6628C17.3955 42.1189 18.6189 42.3295 19.9744 42.3295V40.3295C18.8205 40.3295 17.8777 40.1496 17.1191 39.8245L16.3312 41.6628ZM19.9744 42.3295C21.1027 42.3295 22.1098 42.1911 22.9643 41.8778L22.2758 40C21.7098 40.2076 20.9532 40.3295 19.9744 40.3295V42.3295ZM22.9643 41.8778C23.799 41.5717 24.5092 41.1189 25.0186 40.4781L23.453 39.2336C23.2285 39.516 22.8615 39.7853 22.2758 40L22.9643 41.8778ZM25.0186 40.4781C25.5225 39.8442 25.7876 39.1056 25.8038 38.2956L23.8042 38.2556C23.7967 38.6292 23.683 38.9442 23.453 39.2336L25.0186 40.4781ZM25.8038 38.2543C25.7871 37.4716 25.5217 36.7626 25.0128 36.1688L23.4943 37.4704C23.6956 37.7052 23.7972 37.9669 23.8042 38.2968L25.8038 38.2543ZM25.0323 36.1923C24.5415 35.5829 23.802 35.1231 22.9346 34.7606L22.1634 36.6059C22.8822 36.9063 23.2791 37.204 23.4748 37.4469L25.0323 36.1923ZM22.9462 34.7655C22.07 34.3862 20.9292 34.0502 19.5494 33.7476L19.121 35.7012C20.4402 35.9905 21.4419 36.2937 22.1518 36.601L22.9462 34.7655ZM19.5461 33.7469L15.9239 32.9657L15.5022 34.9207L19.1244 35.702L19.5461 33.7469ZM15.9251 32.9659C12.8184 32.292 10.4514 31.1843 8.75608 29.6942L7.43568 31.1964C9.45727 32.9733 12.1683 34.1975 15.5011 34.9205L15.9251 32.9659ZM8.76114 29.6987C7.16145 28.2733 6.3329 26.3215 6.34374 23.7201L4.34376 23.7117C4.33092 26.7921 5.33713 29.3266 7.43063 31.1919L8.76114 29.6987ZM6.34374 23.7108C6.33289 21.595 6.8932 19.7871 8.00219 18.2451L6.37849 17.0774C5.00169 18.9918 4.33094 21.2203 4.34376 23.721L6.34374 23.7108ZM8.00146 18.2461C9.13895 16.6686 10.7232 15.4192 12.7943 14.511L11.9912 12.6793C9.63519 13.7125 7.7512 15.1737 6.37923 17.0763L8.00146 18.2461ZM12.7926 14.5118C14.8707 13.6053 17.2816 13.1392 20.0455 13.1392V11.1392C17.0565 11.1392 14.3655 11.6437 11.993 12.6786L12.7926 14.5118ZM20.0455 13.1392C22.8715 13.1392 25.2621 13.6122 27.2458 14.5219L28.0795 12.7039C25.7782 11.6487 23.0906 11.1392 20.0455 11.1392V13.1392ZM27.2458 14.5219C29.2349 15.434 30.7316 16.7004 31.7777 18.3122L33.4553 17.2234C32.1812 15.2603 30.3754 13.7568 28.0795 12.7039L27.2458 14.5219ZM31.7819 18.3186C32.8344 19.9134 33.3811 21.7961 33.3921 24.005L35.392 23.995C35.3793 21.4454 34.7423 19.1733 33.4511 17.2169L31.7819 18.3186ZM34.392 23H24.946V25H34.392V23ZM72.6076 12.6364H73.6076V11.6364H72.6076V12.6364ZM72.6076 49V50H73.6076V49H72.6076ZM64.369 49L63.545 49.5667L63.843 50H64.369V49ZM51.2298 29.8949L52.0537 29.3282L51.7557 28.8949H51.2298V29.8949ZM51.0167 29.8949V28.8949H50.0167V29.8949H51.0167ZM51.0167 49V50H52.0167V49H51.0167ZM41.1445 49H40.1445V50H41.1445V49ZM41.1445 12.6364V11.6364H40.1445V12.6364H41.1445ZM49.5252 12.6364L50.3525 12.0746L50.0549 11.6364H49.5252V12.6364ZM62.4513 31.6705L61.6241 32.2323L61.9217 32.6705H62.4513V31.6705ZM62.7354 31.6705V32.6705H63.7354V31.6705H62.7354ZM62.7354 12.6364V11.6364H61.7354V12.6364H62.7354ZM71.6076 12.6364V49H73.6076V12.6364H71.6076ZM72.6076 48H64.369V50H72.6076V48ZM65.1929 48.4333L52.0537 29.3282L50.4058 30.4615L63.545 49.5667L65.1929 48.4333ZM51.2298 28.8949H51.0167V30.8949H51.2298V28.8949ZM50.0167 29.8949V49H52.0167V29.8949H50.0167ZM51.0167 48H41.1445V50H51.0167V48ZM42.1445 49V12.6364H40.1445V49H42.1445ZM41.1445 13.6364H49.5252V11.6364H41.1445V13.6364ZM48.6979 13.1982L61.6241 32.2323L63.2786 31.1087L50.3525 12.0746L48.6979 13.1982ZM62.4513 32.6705H62.7354V30.6705H62.4513V32.6705ZM63.7354 31.6705V12.6364H61.7354V31.6705H63.7354ZM62.7354 13.6364H72.6076V11.6364H62.7354V13.6364ZM78.2859 12.6364V11.6364H76.6158L77.4043 13.1085L78.2859 12.6364ZM89.2944 12.6364L90.1956 12.2031L89.9232 11.6364H89.2944V12.6364ZM96.3967 27.4091L95.4954 27.8424L95.7679 28.4091H96.3967V27.4091ZM96.6808 27.4091V28.4091H97.3096L97.582 27.8424L96.6808 27.4091ZM103.783 12.6364V11.6364H103.154L102.882 12.2031L103.783 12.6364ZM114.792 12.6364L115.673 13.1085L116.462 11.6364H114.792V12.6364ZM101.439 37.5653L100.558 37.0932L100.439 37.3144V37.5653H101.439ZM101.439 49V50H102.439V49H101.439ZM91.6381 49H90.6381V50H91.6381V49ZM91.6381 37.5653H92.6381V37.3144L92.5197 37.0932L91.6381 37.5653ZM78.2859 13.6364H89.2944V11.6364H78.2859V13.6364ZM88.3931 13.0697L95.4954 27.8424L97.2979 26.9758L90.1956 12.2031L88.3931 13.0697ZM96.3967 28.4091H96.6808V26.4091H96.3967V28.4091ZM97.582 27.8424L104.684 13.0697L102.882 12.2031L95.7795 26.9758L97.582 27.8424ZM103.783 13.6364H114.792V11.6364H103.783V13.6364ZM113.91 12.1642L100.558 37.0932L102.321 38.0375L115.673 13.1085L113.91 12.1642ZM100.439 37.5653V49H102.439V37.5653H100.439ZM101.439 48H91.6381V50H101.439V48ZM92.6381 49V37.5653H90.6381V49H92.6381ZM92.5197 37.0932L79.1674 12.1642L77.4043 13.1085L90.7566 38.0375L92.5197 37.0932ZM120.51 49H119.51V50H120.51V49ZM120.51 12.6364V11.6364H119.51V12.6364H120.51ZM130.382 12.6364H131.382V11.6364H130.382V12.6364ZM130.382 27.3381H129.382V28.3381H130.382V27.3381ZM130.879 27.3381V28.3381H131.382L131.681 27.935L130.879 27.3381ZM141.817 12.6364V11.6364H141.314L141.014 12.0395L141.817 12.6364ZM153.322 12.6364L154.119 13.2408L155.336 11.6364H153.322V12.6364ZM141.035 28.8295L140.239 28.2251L139.822 28.7739L140.187 29.3585L141.035 28.8295ZM153.606 49V50H155.408L154.455 48.4711L153.606 49ZM141.817 49L140.959 49.5138L141.25 50H141.817V49ZM133.649 35.3636L134.507 34.8498L133.751 33.5874L132.855 34.7552L133.649 35.3636ZM130.382 39.625L129.588 39.0166L129.382 39.2858V39.625H130.382ZM130.382 49V50H131.382V49H130.382ZM121.51 49V12.6364H119.51V49H121.51ZM120.51 13.6364H130.382V11.6364H120.51V13.6364ZM129.382 12.6364V27.3381H131.382V12.6364H129.382ZM130.382 28.3381H130.879V26.3381H130.382V28.3381ZM131.681 27.935L142.619 13.2333L141.014 12.0395L130.077 26.7412L131.681 27.935ZM141.817 13.6364H153.322V11.6364H141.817V13.6364ZM152.526 12.0319L140.239 28.2251L141.832 29.434L154.119 13.2408L152.526 12.0319ZM140.187 29.3585L152.758 49.5289L154.455 48.4711L141.884 28.3006L140.187 29.3585ZM153.606 48H141.817V50H153.606V48ZM142.674 48.4862L134.507 34.8498L132.791 35.8775L140.959 49.5138L142.674 48.4862ZM132.855 34.7552L129.588 39.0166L131.176 40.2334L134.443 35.9721L132.855 34.7552ZM129.382 39.625V49H131.382V39.625H129.382ZM130.382 48H120.51V50H130.382V48ZM158.752 49H157.752V50H158.752V49ZM158.752 12.6364V11.6364H157.752V12.6364H158.752ZM181.532 14.1101L181.096 15.0097L181.532 14.1101ZM186.256 18.3537L187.11 17.8336L187.11 17.8336L186.256 18.3537ZM186.202 31.5817L185.363 31.0373L185.361 31.0412L186.202 31.5817ZM181.355 35.63L180.954 34.7138L180.952 34.7147L181.355 35.63ZM164.718 36.9972H163.718V37.9972H164.718V36.9972ZM164.718 29.3267V28.3267H163.718V29.3267H164.718ZM175.069 28.9006L175.398 29.8451L175.406 29.8423L175.069 28.9006ZM176.969 27.4979L176.151 26.9223L176.144 26.9326L176.969 27.4979ZM176.969 22.4553L176.135 23.0065L176.141 23.0152L176.147 23.0237L176.969 22.4553ZM175.069 20.9993L174.705 21.9305L174.713 21.9337L174.721 21.9367L175.069 20.9993ZM168.624 20.5199V19.5199H167.624V20.5199H168.624ZM168.624 49V50H169.624V49H168.624ZM180.059 32.3097L180.937 31.8313L180.653 31.3097H180.059V32.3097ZM189.15 49V50H190.833L190.028 48.5217L189.15 49ZM178.425 49L177.542 49.4696L177.824 50H178.425V49ZM169.547 32.3097V31.3097H167.883L168.665 32.7793L169.547 32.3097ZM159.752 49V12.6364H157.752V49H159.752ZM158.752 13.6364H174.448V11.6364H158.752V13.6364ZM174.448 13.6364C177.025 13.6364 179.232 14.1052 181.096 15.0097L181.969 13.2105C179.784 12.15 177.268 11.6364 174.448 11.6364V13.6364ZM181.096 15.0097C182.955 15.912 184.381 17.1981 185.401 18.8738L187.11 17.8336C185.881 15.8162 184.159 14.2732 181.969 13.2105L181.096 15.0097ZM185.401 18.8738C186.413 20.5357 186.942 22.5615 186.942 24.9943H188.942C188.942 22.2661 188.347 19.8648 187.11 17.8336L185.401 18.8738ZM186.942 24.9943C186.942 27.4484 186.397 29.4447 185.363 31.0373L187.041 32.1261C188.328 30.1438 188.942 27.7485 188.942 24.9943H186.942ZM185.361 31.0412C184.327 32.6508 182.87 33.8756 180.954 34.7138L181.756 36.5461C184.006 35.5615 185.781 34.0873 187.044 32.1222L185.361 31.0412ZM180.952 34.7147C179.033 35.5592 176.754 35.9972 174.093 35.9972V37.9972C176.971 37.9972 179.534 37.5236 181.758 36.5453L180.952 34.7147ZM174.093 35.9972H164.718V37.9972H174.093V35.9972ZM165.718 36.9972V29.3267H163.718V36.9972H165.718ZM164.718 30.3267H172.104V28.3267H164.718V30.3267ZM172.104 30.3267C173.34 30.3267 174.446 30.176 175.398 29.8451L174.741 27.9561C174.059 28.1933 173.188 28.3267 172.104 28.3267V30.3267ZM175.406 29.8423C176.405 29.4855 177.221 28.8992 177.794 28.0631L176.144 26.9326C175.841 27.375 175.391 27.7238 174.733 27.9588L175.406 29.8423ZM177.787 28.0734C178.388 27.2195 178.644 26.1654 178.644 24.9943H176.644C176.644 25.8829 176.45 26.4978 176.151 26.9224L177.787 28.0734ZM178.644 24.9943C178.644 23.8131 178.389 22.7505 177.792 21.8868L176.147 23.0237C176.449 23.4621 176.644 24.0922 176.644 24.9943H178.644ZM177.804 21.904C177.236 21.0443 176.422 20.4348 175.418 20.0619L174.721 21.9367C175.374 22.1793 175.827 22.5405 176.135 23.0065L177.804 21.904ZM175.434 20.068C174.47 19.691 173.351 19.5199 172.104 19.5199V21.5199C173.178 21.5199 174.035 21.6684 174.705 21.9305L175.434 20.068ZM172.104 19.5199H168.624V21.5199H172.104V19.5199ZM167.624 20.5199V49H169.624V20.5199H167.624ZM168.624 48H158.752V50H168.624V48ZM179.181 32.788L188.272 49.4783L190.028 48.5217L180.937 31.8313L179.181 32.788ZM189.15 48H178.425V50H189.15V48ZM179.308 48.5304L170.43 31.84L168.665 32.7793L177.542 49.4696L179.308 48.5304ZM169.547 33.3097H180.059V31.3097H169.547V33.3097ZM214.253 24L213.256 24.0797L213.329 25H214.253V24ZM212.921 21.2301L212.274 21.9926L212.28 21.9974L212.921 21.2301ZM206.849 20.6087L207.196 21.5465L207.205 21.5429L206.849 20.6087ZM205.428 21.5852L204.625 20.9889L204.625 20.9889L205.428 21.5852ZM204.949 23.0057L205.947 23.0597L205.948 23.0438L205.948 23.0279L204.949 23.0057ZM205.18 24.1953L204.285 24.6425L204.294 24.6606L204.304 24.6784L205.18 24.1953ZM206.067 25.1364L205.491 25.9533L205.499 25.9591L205.507 25.9646L206.067 25.1364ZM209.849 26.4858L210.059 25.508L210.051 25.5063L209.849 26.4858ZM212.832 27.125L212.623 28.1028L212.625 28.1033L212.832 27.125ZM217.999 28.8118L217.561 29.7106L217.999 28.8118ZM221.515 31.2798L220.794 31.9733L220.799 31.9778L221.515 31.2798ZM223.521 34.4403L222.581 34.7821L222.584 34.7904L223.521 34.4403ZM224.196 38.2756L225.196 38.2805L225.196 38.267L224.196 38.2756ZM222.403 44.348L223.216 44.9292L223.216 44.9292L222.403 44.348ZM217.324 48.13L216.959 47.1991L216.957 47.1998L217.324 48.13ZM201.149 48.0234L200.778 48.9522L200.78 48.9529L201.149 48.0234ZM195.68 43.7088L194.846 44.26L194.85 44.2658L195.68 43.7088ZM193.727 36.2159V35.2159H192.723L192.727 36.2198L193.727 36.2159ZM203.102 36.2159L204.101 36.1628L204.05 35.2159H203.102V36.2159ZM203.937 39.0213L203.101 39.57L203.101 39.57L203.937 39.0213ZM206.032 40.7436L205.633 41.6609L205.638 41.6628L206.032 40.7436ZM211.927 40.9389L212.271 41.8778L212.271 41.8778L211.927 40.9389ZM213.542 39.8558L214.325 40.4781L214.325 40.4781L213.542 39.8558ZM214.111 38.2756L215.11 38.2956L215.111 38.2749L215.11 38.2543L214.111 38.2756ZM213.56 36.8196L212.781 37.4469L212.791 37.4588L212.801 37.4704L213.56 36.8196ZM211.856 35.6832L211.458 36.601L211.47 36.6059L211.856 35.6832ZM208.642 34.7244L208.856 33.7476L208.853 33.7469L208.642 34.7244ZM205.02 33.9432L204.808 34.9205L204.809 34.9207L205.02 33.9432ZM197.403 30.4453L196.737 31.1919L196.742 31.1964L197.403 30.4453ZM194.65 23.7159L195.65 23.7201L195.65 23.7108L194.65 23.7159ZM196.497 17.6612L195.686 17.0763L195.685 17.0774L196.497 17.6612ZM201.699 13.5952L201.3 12.6786L201.298 12.6793L201.699 13.5952ZM216.969 13.6129L216.552 14.5219L216.552 14.5219L216.969 13.6129ZM221.923 17.7678L221.084 18.3122L221.089 18.3186L221.923 17.7678ZM223.699 24V25H224.704L224.699 23.995L223.699 24ZM215.249 23.9203C215.137 22.5123 214.592 21.3239 213.562 20.4628L212.28 21.9974C212.836 22.4621 213.179 23.1203 213.256 24.0797L215.249 23.9203ZM213.568 20.4676C212.529 19.5859 211.061 19.2358 209.352 19.2358V21.2358C210.839 21.2358 211.751 21.5486 212.274 21.9926L213.568 20.4676ZM209.352 19.2358C208.263 19.2358 207.296 19.3672 206.492 19.6744L207.205 21.5429C207.703 21.3529 208.405 21.2358 209.352 21.2358V19.2358ZM206.501 19.6709C205.738 19.9538 205.08 20.3765 204.625 20.9889L206.231 22.1815C206.391 21.9654 206.681 21.737 207.196 21.5464L206.501 19.6709ZM204.625 20.9889C204.19 21.5752 203.965 22.2508 203.949 22.9835L205.948 23.0279C205.956 22.6952 206.051 22.4239 206.231 22.1815L204.625 20.9889ZM203.95 22.9517C203.918 23.5444 204.022 24.1164 204.285 24.6425L206.074 23.7481C205.982 23.564 205.932 23.343 205.947 23.0597L203.95 22.9517ZM204.304 24.6784C204.583 25.1837 204.995 25.6038 205.491 25.9533L206.644 24.3194C206.334 24.1008 206.155 23.8935 206.055 23.7122L204.304 24.6784ZM205.507 25.9646C205.999 26.2974 206.595 26.58 207.275 26.8234L207.95 24.9408C207.374 24.7344 206.941 24.5198 206.628 24.3081L205.507 25.9646ZM207.275 26.8234C207.958 27.0684 208.751 27.2811 209.648 27.4653L210.051 25.5063C209.219 25.3354 208.521 25.1456 207.95 24.9408L207.275 26.8234ZM209.64 27.4636L212.623 28.1028L213.042 26.1472L210.059 25.508L209.64 27.4636ZM212.625 28.1033C214.579 28.5171 216.22 29.0567 217.561 29.7106L218.437 27.9129C216.914 27.1701 215.11 26.5851 213.039 26.1467L212.625 28.1033ZM217.561 29.7106C218.909 30.3682 219.979 31.1266 220.794 31.9733L222.235 30.5864C221.227 29.5391 219.953 28.6521 218.437 27.9129L217.561 29.7106ZM220.799 31.9778C221.616 32.8163 222.206 33.7498 222.581 34.7821L224.461 34.0986C223.984 32.7872 223.237 31.6136 222.231 30.5818L220.799 31.9778ZM222.584 34.7904C222.977 35.8419 223.185 37.0034 223.196 38.2841L225.196 38.267C225.183 36.7779 224.941 35.3825 224.458 34.0903L222.584 34.7904ZM223.196 38.2706C223.185 40.492 222.632 42.3056 221.589 43.7668L223.216 44.9292C224.54 43.076 225.183 40.8413 225.196 38.2805L223.196 38.2706ZM221.589 43.7668C220.535 45.2424 219.01 46.394 216.959 47.1991L217.69 49.0608C220.042 48.1377 221.903 46.768 223.216 44.9292L221.589 43.7668ZM216.957 47.1998C214.914 48.006 212.412 48.4261 209.423 48.4261V50.4261C212.59 50.4261 215.355 49.9822 217.691 49.0602L216.957 47.1998ZM209.423 48.4261C206.359 48.4261 203.731 47.9726 201.518 47.094L200.78 48.9529C203.278 49.9446 206.166 50.4261 209.423 50.4261V48.4261ZM201.52 47.0946C199.347 46.228 197.691 44.9121 196.511 43.1518L194.85 44.2658C196.273 46.388 198.263 47.9486 200.778 48.9522L201.52 47.0946ZM196.515 43.1576C195.36 41.4091 194.738 39.1171 194.727 36.212L192.727 36.2198C192.739 39.399 193.42 42.1023 194.846 44.26L196.515 43.1576ZM193.727 37.2159H203.102V35.2159H193.727V37.2159ZM202.104 36.269C202.17 37.518 202.486 38.634 203.101 39.57L204.773 38.4726C204.393 37.8934 204.153 37.1392 204.101 36.1628L202.104 36.269ZM203.101 39.57C203.713 40.5039 204.571 41.1993 205.633 41.6609L206.43 39.8263C205.694 39.5066 205.154 39.0539 204.773 38.4726L203.101 39.57ZM205.638 41.6628C206.702 42.1189 207.926 42.3295 209.281 42.3295V40.3295C208.127 40.3295 207.184 40.1496 206.426 39.8245L205.638 41.6628ZM209.281 42.3295C210.409 42.3295 211.416 42.1911 212.271 41.8778L211.582 40C211.016 40.2076 210.26 40.3295 209.281 40.3295V42.3295ZM212.271 41.8778C213.106 41.5717 213.816 41.1189 214.325 40.4781L212.76 39.2336C212.535 39.516 212.168 39.7853 211.582 40L212.271 41.8778ZM214.325 40.4781C214.829 39.8442 215.094 39.1056 215.11 38.2956L213.111 38.2556C213.103 38.6292 212.99 38.9442 212.76 39.2336L214.325 40.4781ZM215.11 38.2543C215.094 37.4716 214.828 36.7626 214.319 36.1688L212.801 37.4704C213.002 37.7052 213.104 37.9669 213.111 38.2968L215.11 38.2543ZM214.339 36.1923C213.848 35.5829 213.109 35.1231 212.241 34.7606L211.47 36.6059C212.189 36.9063 212.586 37.204 212.781 37.4469L214.339 36.1923ZM212.253 34.7655C211.377 34.3862 210.236 34.0502 208.856 33.7476L208.428 35.7012C209.747 35.9905 210.749 36.2937 211.458 36.601L212.253 34.7655ZM208.853 33.7469L205.231 32.9657L204.809 34.9207L208.431 35.702L208.853 33.7469ZM205.232 32.9659C202.125 32.292 199.758 31.1843 198.063 29.6942L196.742 31.1964C198.764 32.9733 201.475 34.1975 204.808 34.9205L205.232 32.9659ZM198.068 29.6987C196.468 28.2733 195.64 26.3215 195.65 23.7201L193.65 23.7117C193.638 26.7921 194.644 29.3266 196.737 31.1919L198.068 29.6987ZM195.65 23.7108C195.64 21.595 196.2 19.7871 197.309 18.2451L195.685 17.0774C194.308 18.9918 193.638 21.2203 193.65 23.721L195.65 23.7108ZM197.308 18.2461C198.446 16.6686 200.03 15.4192 202.101 14.511L201.298 12.6793C198.942 13.7125 197.058 15.1737 195.686 17.0763L197.308 18.2461ZM202.099 14.5118C204.177 13.6053 206.588 13.1392 209.352 13.1392V11.1392C206.363 11.1392 203.672 11.6437 201.3 12.6786L202.099 14.5118ZM209.352 13.1392C212.178 13.1392 214.569 13.6122 216.552 14.5219L217.386 12.7039C215.085 11.6487 212.397 11.1392 209.352 11.1392V13.1392ZM216.552 14.5219C218.542 15.434 220.038 16.7004 221.084 18.3122L222.762 17.2234C221.488 15.2603 219.682 13.7568 217.386 12.7039L216.552 14.5219ZM221.089 18.3186C222.141 19.9134 222.688 21.7961 222.699 24.005L224.699 23.995C224.686 21.4454 224.049 19.1733 222.758 17.2169L221.089 18.3186ZM223.699 23H214.253V25H223.699V23Z" fill="#393939"/>
<path d="M21.946 27C21.8513 25.8163 21.4074 24.893 20.6143 24.2301C19.8331 23.5672 18.6435 23.2358 17.0455 23.2358C16.0275 23.2358 15.1929 23.3601 14.5419 23.6087C13.9027 23.8454 13.4292 24.1709 13.1214 24.5852C12.8137 24.9995 12.6539 25.473 12.642 26.0057C12.6184 26.4437 12.6953 26.8402 12.8729 27.1953C13.0623 27.5386 13.3582 27.8523 13.7607 28.1364C14.1631 28.4086 14.678 28.6572 15.3054 28.8821C15.9328 29.107 16.6785 29.3082 17.5426 29.4858L20.5256 30.125C22.5379 30.5511 24.2602 31.1134 25.6925 31.8118C27.1248 32.5102 28.2966 33.3329 29.2081 34.2798C30.1196 35.215 30.7884 36.2685 31.2145 37.4403C31.6525 38.6122 31.8774 39.8906 31.8892 41.2756C31.8774 43.6667 31.2796 45.6908 30.0959 47.348C28.9122 49.0052 27.2195 50.2659 25.0178 51.13C22.8279 51.9941 20.1941 52.4261 17.1165 52.4261C13.956 52.4261 11.1979 51.9586 8.84233 51.0234C6.49858 50.0883 4.67566 48.6501 3.37358 46.7088C2.08333 44.7557 1.43229 42.258 1.42045 39.2159H10.7955C10.8546 40.3286 11.1328 41.2637 11.63 42.0213C12.1271 42.7789 12.8255 43.353 13.7251 43.7436C14.6366 44.1342 15.7197 44.3295 16.9744 44.3295C18.0279 44.3295 18.9098 44.1993 19.62 43.9389C20.3303 43.6785 20.8688 43.3175 21.2358 42.8558C21.6027 42.3942 21.7921 41.8674 21.804 41.2756C21.7921 40.7192 21.6087 40.2339 21.2536 39.8196C20.9103 39.3935 20.3421 39.0147 19.549 38.6832C18.7559 38.34 17.6847 38.0204 16.3352 37.7244L12.7131 36.9432C9.49337 36.2448 6.95431 35.0788 5.09588 33.4453C3.24929 31.8 2.33191 29.5568 2.34375 26.7159C2.33191 24.4077 2.94744 22.3894 4.19034 20.6612C5.44508 18.9212 7.17921 17.5658 9.39276 16.5952C11.6181 15.6245 14.169 15.1392 17.0455 15.1392C19.9811 15.1392 22.5201 15.6304 24.6626 16.6129C26.8052 17.5954 28.4564 18.9804 29.6165 20.7678C30.7884 22.5433 31.3802 24.6207 31.392 27H21.946ZM69.6076 15.6364V52H61.369L48.2298 32.8949H48.0167V52H38.1445V15.6364H46.5252L59.4513 34.6705H59.7354V15.6364H69.6076ZM75.2859 15.6364H86.2944L93.3967 30.4091H93.6808L100.783 15.6364H111.792L98.4393 40.5653V52H88.6381V40.5653L75.2859 15.6364ZM117.51 52V15.6364H127.382V30.3381H127.879L138.817 15.6364H150.322L138.035 31.8295L150.606 52H138.817L130.649 38.3636L127.382 42.625V52H117.51ZM155.752 52V15.6364H171.448C174.147 15.6364 176.508 16.1276 178.532 17.1101C180.557 18.0926 182.131 19.5071 183.256 21.3537C184.38 23.2003 184.942 25.4138 184.942 27.9943C184.942 30.5985 184.362 32.7943 183.202 34.5817C182.054 36.3691 180.438 37.7185 178.355 38.63C176.283 39.5414 173.863 39.9972 171.093 39.9972H161.718V32.3267H169.104C170.264 32.3267 171.253 32.1847 172.069 31.9006C172.898 31.6046 173.531 31.1371 173.969 30.4979C174.419 29.8587 174.644 29.0241 174.644 27.9943C174.644 26.9527 174.419 26.1063 173.969 25.4553C173.531 24.7924 172.898 24.3071 172.069 23.9993C171.253 23.6797 170.264 23.5199 169.104 23.5199H165.624V52H155.752ZM177.059 35.3097L186.15 52H175.425L166.547 35.3097H177.059ZM211.253 27C211.158 25.8163 210.714 24.893 209.921 24.2301C209.14 23.5672 207.95 23.2358 206.352 23.2358C205.334 23.2358 204.5 23.3601 203.849 23.6087C203.209 23.8454 202.736 24.1709 202.428 24.5852C202.12 24.9995 201.961 25.473 201.949 26.0057C201.925 26.4437 202.002 26.8402 202.18 27.1953C202.369 27.5386 202.665 27.8523 203.067 28.1364C203.47 28.4086 203.985 28.6572 204.612 28.8821C205.239 29.107 205.985 29.3082 206.849 29.4858L209.832 30.125C211.845 30.5511 213.567 31.1134 214.999 31.8118C216.431 32.5102 217.603 33.3329 218.515 34.2798C219.426 35.215 220.095 36.2685 220.521 37.4403C220.959 38.6122 221.184 39.8906 221.196 41.2756C221.184 43.6667 220.586 45.6908 219.403 47.348C218.219 49.0052 216.526 50.2659 214.324 51.13C212.135 51.9941 209.501 52.4261 206.423 52.4261C203.263 52.4261 200.505 51.9586 198.149 51.0234C195.805 50.0883 193.982 48.6501 192.68 46.7088C191.39 44.7557 190.739 42.258 190.727 39.2159H200.102C200.161 40.3286 200.439 41.2637 200.937 42.0213C201.434 42.7789 202.132 43.353 203.032 43.7436C203.943 44.1342 205.026 44.3295 206.281 44.3295C207.335 44.3295 208.216 44.1993 208.927 43.9389C209.637 43.6785 210.175 43.3175 210.542 42.8558C210.909 42.3942 211.099 41.8674 211.111 41.2756C211.099 40.7192 210.915 40.2339 210.56 39.8196C210.217 39.3935 209.649 39.0147 208.856 38.6832C208.063 38.34 206.991 38.0204 205.642 37.7244L202.02 36.9432C198.8 36.2448 196.261 35.0788 194.403 33.4453C192.556 31.8 191.639 29.5568 191.65 26.7159C191.639 24.4077 192.254 22.3894 193.497 20.6612C194.752 18.9212 196.486 17.5658 198.699 16.5952C200.925 15.6245 203.476 15.1392 206.352 15.1392C209.288 15.1392 211.827 15.6304 213.969 16.6129C216.112 17.5954 217.763 18.9804 218.923 20.7678C220.095 22.5433 220.687 24.6207 220.699 27H211.253Z" fill="#393939"/>
</svg>
