<svg width="159" height="45" viewBox="0 0 159 45" fill="none" xmlns="http://www.w3.org/2000/svg">
<path d="M18.3622 16.5L17.3654 16.5797L17.439 17.5H18.3622V16.5ZM17.43 14.5611L16.783 15.3236L16.7887 15.3284L17.43 14.5611ZM13.1793 14.1261L13.5267 15.0639L13.536 15.0603L13.1793 14.1261ZM12.185 14.8097L11.3823 14.2133L11.3823 14.2133L12.185 14.8097ZM11.8494 15.804L12.848 15.858L12.8488 15.8421L12.8492 15.8262L11.8494 15.804ZM12.011 16.6367L11.1166 17.0839L11.1256 17.1021L11.1354 17.1198L12.011 16.6367ZM12.6325 17.2955L12.0558 18.1124L12.0639 18.1182L12.0721 18.1237L12.6325 17.2955ZM15.2798 18.2401L15.4894 17.2622L15.4811 17.2605L15.2798 18.2401ZM17.3679 18.6875L17.1584 19.6653L17.1607 19.6658L17.3679 18.6875ZM20.9847 19.8683L20.5465 20.7671L20.9847 19.8683ZM23.4457 21.5959L22.7252 22.2894L22.7296 22.2939L23.4457 21.5959ZM24.8501 23.8082L23.9103 24.15L23.9134 24.1583L24.8501 23.8082ZM25.3224 26.4929L26.3225 26.4978L26.3224 26.4844L25.3224 26.4929ZM24.0671 30.7436L24.8809 31.3248L24.8809 31.3248L24.0671 30.7436ZM20.5124 33.391L20.1471 32.4601L20.1454 32.4608L20.5124 33.391ZM9.18963 33.3164L8.81905 34.2452L8.82066 34.2458L9.18963 33.3164ZM5.36151 30.2962L4.52711 30.8474L4.53102 30.8532L5.36151 30.2962ZM3.99432 25.0511V24.0511H2.99042L2.99433 25.055L3.99432 25.0511ZM10.5568 25.0511L11.5554 24.998L11.505 24.0511H10.5568V25.0511ZM11.141 27.0149L10.3049 27.5636L10.3049 27.5636L11.141 27.0149ZM12.6076 28.2205L12.2093 29.1378L12.2137 29.1397L12.6076 28.2205ZM16.734 28.3572L17.0783 29.2961L17.0783 29.2961L16.734 28.3572ZM17.8651 27.5991L18.6479 28.2213L18.6479 28.2213L17.8651 27.5991ZM18.2628 26.4929L19.2626 26.5129L19.263 26.4923L19.2626 26.4716L18.2628 26.4929ZM17.8775 25.4737L17.0987 26.1011L17.1083 26.1129L17.1182 26.1245L17.8775 25.4737ZM16.6843 24.6783L16.2871 25.5961L16.2987 25.6009L16.6843 24.6783ZM14.4347 24.0071L14.6489 23.0303L14.6455 23.0296L14.4347 24.0071ZM11.8991 23.4602L11.6872 24.4375L11.6883 24.4377L11.8991 23.4602ZM6.56712 21.0117L5.90185 21.7584L5.90692 21.7628L6.56712 21.0117ZM4.64062 16.3011L5.64066 16.3053L5.64061 16.296L4.64062 16.3011ZM5.93324 12.0629L5.12212 11.478L5.12139 11.479L5.93324 12.0629ZM9.57493 9.21662L9.17513 8.30001L9.17334 8.3008L9.57493 9.21662ZM20.2638 9.22905L19.847 10.138L19.847 10.138L20.2638 9.22905ZM23.7315 12.1374L22.8927 12.6818L22.8969 12.6883L23.7315 12.1374ZM24.9744 16.5V17.5H25.9794L25.9744 16.495L24.9744 16.5ZM19.359 16.4203C19.2748 15.3674 18.8636 14.456 18.0714 13.7938L16.7887 15.3284C17.1068 15.5942 17.3171 15.9754 17.3654 16.5797L19.359 16.4203ZM18.077 13.7986C17.2723 13.1157 16.1614 12.8651 14.9318 12.8651V14.8651C15.9395 14.8651 16.4941 15.0784 16.7831 15.3236L18.077 13.7986ZM14.9318 12.8651C14.1485 12.8651 13.4319 12.9592 12.8226 13.1918L13.536 15.0603C13.8382 14.9449 14.29 14.8651 14.9318 14.8651V12.8651ZM12.832 13.1883C12.2601 13.4002 11.7449 13.7252 11.3823 14.2133L12.9878 15.406C13.056 15.3141 13.2037 15.1834 13.5266 15.0638L12.832 13.1883ZM11.3823 14.2133C11.0391 14.6753 10.8624 15.2089 10.8497 15.7818L12.8492 15.8262C12.853 15.6533 12.9001 15.524 12.9878 15.406L11.3823 14.2133ZM10.8509 15.75C10.826 16.2113 10.9068 16.6643 11.1166 17.0839L12.9054 16.1895C12.8667 16.112 12.8398 16.0099 12.848 15.858L10.8509 15.75ZM11.1354 17.1198C11.3574 17.5221 11.6813 17.8481 12.0558 18.1124L13.2091 16.4785C13.0202 16.3451 12.9298 16.2319 12.8866 16.1536L11.1354 17.1198ZM12.0721 18.1237C12.4434 18.3749 12.8854 18.5828 13.3763 18.7588L14.0512 16.8761C13.6639 16.7373 13.385 16.5972 13.1928 16.4672L12.0721 18.1237ZM13.3763 18.7588C13.8715 18.9363 14.4413 19.0886 15.0786 19.2196L15.4811 17.2605C14.9086 17.1429 14.4344 17.0135 14.0512 16.8761L13.3763 18.7588ZM15.0703 19.2179L17.1584 19.6653L17.5774 17.7097L15.4894 17.2623L15.0703 19.2179ZM17.1607 19.6658C18.5112 19.9518 19.635 20.3227 20.5465 20.7671L21.423 18.9694C20.3292 18.4361 19.0418 18.0198 17.5751 17.7092L17.1607 19.6658ZM20.5465 20.7671C21.4654 21.2152 22.1837 21.7267 22.7252 22.2893L24.1662 20.9024C23.4316 20.1393 22.5093 19.4991 21.423 18.9694L20.5465 20.7671ZM22.7296 22.2939C23.2734 22.8518 23.6628 23.4692 23.9104 24.15L25.7899 23.4665C25.4409 22.5066 24.894 21.6491 24.1618 20.8979L22.7296 22.2939ZM23.9134 24.1583C24.175 24.8583 24.3151 25.6362 24.3225 26.5014L26.3224 26.4844C26.3132 25.4107 26.1384 24.3988 25.7869 23.4582L23.9134 24.1583ZM24.3225 26.4879C24.315 27.992 23.942 29.1984 23.2534 30.1624L24.8809 31.3248C25.8495 29.9688 26.3133 28.3413 26.3224 26.4978L24.3225 26.4879ZM23.2534 30.1624C22.5545 31.1408 21.5379 31.9143 20.1471 32.4601L20.8778 34.3219C22.5694 33.6579 23.9225 32.6665 24.8809 31.3248L23.2534 30.1624ZM20.1454 32.4608C18.7592 33.0078 17.0469 33.2983 14.9815 33.2983V35.2983C17.2249 35.2983 19.1999 34.984 20.8795 34.3212L20.1454 32.4608ZM14.9815 33.2983C12.8654 33.2983 11.065 32.985 9.5586 32.387L8.82066 34.2458C10.6121 34.957 12.6729 35.2983 14.9815 35.2983V33.2983ZM9.56021 32.3876C8.09123 31.8015 6.98211 30.9171 6.19199 29.7391L4.53102 30.8532C5.56382 32.393 7.00678 33.5221 8.81905 34.2452L9.56021 32.3876ZM6.19588 29.745C5.42786 28.5824 5.00206 27.0396 4.99431 25.0472L2.99433 25.055C3.00315 27.3216 3.48881 29.2756 4.52713 30.8474L6.19588 29.745ZM3.99432 26.0511H10.5568V24.0511H3.99432V26.0511ZM9.55823 25.1043C9.60691 26.0195 9.83987 26.8549 10.3049 27.5636L11.977 26.4663C11.7461 26.1143 11.5896 25.6406 11.5554 24.998L9.55823 25.1043ZM10.3049 27.5636C10.7687 28.2702 11.4162 28.7934 12.2093 29.1378L13.0059 27.3033C12.5395 27.1008 12.2093 26.8202 11.977 26.4663L10.3049 27.5636ZM12.2137 29.1397C13.0045 29.4786 13.903 29.6307 14.8821 29.6307V27.6307C14.1046 27.6307 13.4868 27.5093 13.0015 27.3014L12.2137 29.1397ZM14.8821 29.6307C15.6943 29.6307 16.4369 29.5313 17.0783 29.2961L16.3898 27.4184C16.0369 27.5478 15.5448 27.6307 14.8821 27.6307V29.6307ZM17.0783 29.2961C17.6999 29.0682 18.2486 28.7237 18.6479 28.2213L17.0822 26.9768C16.9678 27.1208 16.7624 27.2817 16.3898 27.4184L17.0783 29.2961ZM18.6479 28.2213C19.0417 27.7259 19.2499 27.1454 19.2626 26.5129L17.263 26.4729C17.2591 26.669 17.2022 26.8259 17.0822 26.9768L18.6479 28.2213ZM19.2626 26.4716C19.2495 25.8558 19.0391 25.2924 18.6367 24.8229L17.1182 26.1245C17.213 26.2351 17.2595 26.3511 17.263 26.5142L19.2626 26.4716ZM18.6562 24.8464C18.2684 24.3649 17.6994 24.0187 17.0699 23.7556L16.2987 25.6009C16.7796 25.8019 17.006 25.9859 17.0987 26.1011L18.6562 24.8464ZM17.0815 23.7605C16.4432 23.4843 15.6238 23.2441 14.6489 23.0303L14.2205 24.9839C15.1348 25.1844 15.8151 25.3917 16.2871 25.596L17.0815 23.7605ZM14.6455 23.0296L12.11 22.4827L11.6883 24.4377L14.2238 24.9846L14.6455 23.0296ZM12.1111 22.483C9.97042 22.0186 8.36506 21.2607 7.22731 20.2606L5.90692 21.7628C7.37097 23.0497 9.3203 23.9241 11.6872 24.4375L12.1111 22.483ZM7.23237 20.2651C6.18666 19.3333 5.63333 18.0544 5.64062 16.3053L3.64063 16.297C3.63135 18.5251 4.36235 20.3866 5.90186 21.7583L7.23237 20.2651ZM5.64061 16.296C5.63331 14.8727 6.00897 13.6703 6.74509 12.6467L5.12139 11.479C4.11745 12.8749 3.63137 14.498 3.64064 16.3063L5.64061 16.296ZM6.74435 12.6477C7.50543 11.5923 8.56948 10.7494 9.97652 10.1324L9.17334 8.3008C7.48142 9.04271 6.11768 10.0973 5.12212 11.478L6.74435 12.6477ZM9.97472 10.1332C11.3853 9.51798 13.0309 9.19744 14.9318 9.19744V7.19744C12.8058 7.19744 10.8801 7.55636 9.17513 8.30001L9.97472 10.1332ZM14.9318 9.19744C16.8772 9.19744 18.506 9.5231 19.847 10.138L20.6807 8.32006C19.0222 7.55952 17.0963 7.19744 14.9318 7.19744V9.19744ZM19.847 10.138C21.1933 10.7554 22.1947 11.6063 22.8927 12.6818L24.5704 11.593C23.6443 10.1661 22.3339 9.07817 20.6807 8.32006L19.847 10.138ZM22.8969 12.6883C23.5979 13.7504 23.967 15.0099 23.9744 16.505L25.9744 16.495C25.9653 14.6592 25.5058 13.0103 24.5661 11.5866L22.8969 12.6883ZM24.9744 15.5H18.3622V17.5H24.9744V15.5ZM51.7253 8.54545H52.7253V7.54545H51.7253V8.54545ZM51.7253 34V35H52.7253V34H51.7253ZM45.9583 34L45.1343 34.5667L45.4323 35H45.9583V34ZM36.7608 20.6264L37.5848 20.0598L37.2868 19.6264H36.7608V20.6264ZM36.6117 20.6264V19.6264H35.6117V20.6264H36.6117ZM36.6117 34V35H37.6117V34H36.6117ZM29.7012 34H28.7012V35H29.7012V34ZM29.7012 8.54545V7.54545H28.7012V8.54545H29.7012ZM35.5676 8.54545L36.3949 7.98365L36.0973 7.54545H35.5676V8.54545ZM44.6159 21.8693L43.7887 22.4311L44.0863 22.8693H44.6159V21.8693ZM44.8148 21.8693V22.8693H45.8148V21.8693H44.8148ZM44.8148 8.54545V7.54545H43.8148V8.54545H44.8148ZM50.7253 8.54545V34H52.7253V8.54545H50.7253ZM51.7253 33H45.9583V35H51.7253V33ZM46.7822 33.4333L37.5848 20.0598L35.9369 21.1931L45.1343 34.5667L46.7822 33.4333ZM36.7608 19.6264H36.6117V21.6264H36.7608V19.6264ZM35.6117 20.6264V34H37.6117V20.6264H35.6117ZM36.6117 33H29.7012V35H36.6117V33ZM30.7012 34V8.54545H28.7012V34H30.7012ZM29.7012 9.54545H35.5676V7.54545H29.7012V9.54545ZM34.7404 9.10726L43.7887 22.4311L45.4432 21.3075L36.3949 7.98365L34.7404 9.10726ZM44.6159 22.8693H44.8148V20.8693H44.6159V22.8693ZM45.8148 21.8693V8.54545H43.8148V21.8693H45.8148ZM44.8148 9.54545H51.7253V7.54545H44.8148V9.54545ZM55.7001 8.54545V7.54545H54.0301L54.8186 9.01761L55.7001 8.54545ZM63.4061 8.54545L64.3073 8.11216L64.0349 7.54545H63.4061V8.54545ZM68.3777 18.8864L67.4764 19.3197L67.7489 19.8864H68.3777V18.8864ZM68.5765 18.8864V19.8864H69.2053L69.4778 19.3197L68.5765 18.8864ZM73.5481 8.54545V7.54545H72.9193L72.6469 8.11216L73.5481 8.54545ZM81.2541 8.54545L82.1356 9.01761L82.9241 7.54545H81.2541V8.54545ZM71.9075 25.9957L71.026 25.5236L70.9075 25.7448V25.9957H71.9075ZM71.9075 34V35H72.9075V34H71.9075ZM65.0467 34H64.0467V35H65.0467V34ZM65.0467 25.9957H66.0467V25.7448L65.9282 25.5236L65.0467 25.9957ZM55.7001 9.54545H63.4061V7.54545H55.7001V9.54545ZM62.5048 8.97875L67.4764 19.3197L69.2789 18.4531L64.3073 8.11216L62.5048 8.97875ZM68.3777 19.8864H68.5765V17.8864H68.3777V19.8864ZM69.4778 19.3197L74.4494 8.97875L72.6469 8.11216L67.6753 18.4531L69.4778 19.3197ZM73.5481 9.54545H81.2541V7.54545H73.5481V9.54545ZM80.3726 8.0733L71.026 25.5236L72.789 26.4679L82.1356 9.01761L80.3726 8.0733ZM70.9075 25.9957V34H72.9075V25.9957H70.9075ZM71.9075 33H65.0467V35H71.9075V33ZM66.0467 34V25.9957H64.0467V34H66.0467ZM65.9282 25.5236L56.5816 8.0733L54.8186 9.01761L64.1652 26.4679L65.9282 25.5236ZM85.2568 34H84.2568V35H85.2568V34ZM85.2568 8.54545V7.54545H84.2568V8.54545H85.2568ZM92.1673 8.54545H93.1673V7.54545H92.1673V8.54545ZM92.1673 18.8366H91.1673V19.8366H92.1673V18.8366ZM92.5154 18.8366V19.8366H93.0178L93.3177 19.4335L92.5154 18.8366ZM100.172 8.54545V7.54545H99.6692L99.3693 7.94856L100.172 8.54545ZM108.226 8.54545L109.022 9.14992L110.24 7.54545H108.226V8.54545ZM99.6247 19.8807L98.8281 19.2762L98.4117 19.825L98.7761 20.4096L99.6247 19.8807ZM108.424 34V35H110.226L109.273 33.4711L108.424 34ZM100.172 34L99.3137 34.5138L99.6049 35H100.172V34ZM94.4543 24.4545L95.3122 23.9407L94.556 22.6783L93.6607 23.8461L94.4543 24.4545ZM92.1673 27.4375L91.3737 26.8291L91.1673 27.0983V27.4375H92.1673ZM92.1673 34V35H93.1673V34H92.1673ZM86.2568 34V8.54545H84.2568V34H86.2568ZM85.2568 9.54545H92.1673V7.54545H85.2568V9.54545ZM91.1673 8.54545V18.8366H93.1673V8.54545H91.1673ZM92.1673 19.8366H92.5154V17.8366H92.1673V19.8366ZM93.3177 19.4335L100.974 9.14235L99.3693 7.94856L91.713 18.2398L93.3177 19.4335ZM100.172 9.54545H108.226V7.54545H100.172V9.54545ZM107.429 7.94099L98.8281 19.2762L100.421 20.4851L109.022 9.14992L107.429 7.94099ZM98.7761 20.4096L107.576 34.5289L109.273 33.4711L100.473 19.3518L98.7761 20.4096ZM108.424 33H100.172V35H108.424V33ZM101.029 33.4862L95.3122 23.9407L93.5964 24.9684L99.3137 34.5138L101.029 33.4862ZM93.6607 23.8461L91.3737 26.8291L92.961 28.0459L95.2479 25.063L93.6607 23.8461ZM91.1673 27.4375V34H93.1673V27.4375H91.1673ZM92.1673 33H85.2568V35H92.1673V33ZM112.026 34H111.026V35H112.026V34ZM112.026 8.54545V7.54545H111.026V8.54545H112.026ZM127.973 9.57706L127.536 10.4767L127.973 9.57706ZM131.279 12.5476L132.133 12.0275L132.133 12.0275L131.279 12.5476ZM131.242 21.8072L130.403 21.2628L130.4 21.2667L131.242 21.8072ZM127.848 24.641L127.448 23.7248L127.446 23.7257L127.848 24.641ZM116.203 25.598H115.203V26.598H116.203V25.598ZM116.203 20.2287V19.2287H115.203V20.2287H116.203ZM123.449 19.9304L123.777 20.8749L123.785 20.8721L123.449 19.9304ZM124.778 18.9485L123.961 18.373L123.954 18.3833L124.778 18.9485ZM124.778 15.4187L123.944 15.9699L123.95 15.9786L123.956 15.9871L124.778 15.4187ZM123.449 14.3995L123.084 15.3307L123.092 15.3339L123.1 15.3369L123.449 14.3995ZM118.937 14.0639V13.0639H117.937V14.0639H118.937ZM118.937 34V35H119.937V34H118.937ZM126.941 22.3168L127.819 21.8384L127.535 21.3168H126.941V22.3168ZM133.305 34V35H134.988L134.183 33.5217L133.305 34ZM125.798 34L124.915 34.4696L125.197 35H125.798V34ZM119.583 22.3168V21.3168H117.919L118.7 22.7864L119.583 22.3168ZM113.026 34V8.54545H111.026V34H113.026ZM112.026 9.54545H123.014V7.54545H112.026V9.54545ZM123.014 9.54545C124.781 9.54545 126.28 9.86689 127.536 10.4767L128.409 8.67743C126.832 7.91175 125.024 7.54545 123.014 7.54545V9.54545ZM127.536 10.4767C128.788 11.0842 129.742 11.9459 130.425 13.0677L132.133 12.0275C131.242 10.564 129.992 9.4454 128.409 8.67743L127.536 10.4767ZM130.425 13.0677C131.099 14.1756 131.46 15.5374 131.46 17.196H133.46C133.46 15.242 133.033 13.5048 132.133 12.0275L130.425 13.0677ZM131.46 17.196C131.46 18.8689 131.088 20.2065 130.403 21.2628L132.08 22.3516C133.019 20.9055 133.46 19.169 133.46 17.196H131.46ZM130.4 21.2667C129.711 22.3401 128.739 23.16 127.448 23.7248L128.249 25.5571C129.875 24.8459 131.165 23.7766 132.083 22.3476L130.4 21.2667ZM127.446 23.7257C126.148 24.2968 124.596 24.598 122.765 24.598V26.598C124.812 26.598 126.649 26.2612 128.251 25.5563L127.446 23.7257ZM122.765 24.598H116.203V26.598H122.765V24.598ZM117.203 25.598V20.2287H115.203V25.598H117.203ZM116.203 21.2287H121.373V19.2287H116.203V21.2287ZM121.373 21.2287C122.261 21.2287 123.071 21.1206 123.777 20.8749L123.12 18.9859C122.683 19.1379 122.109 19.2287 121.373 19.2287V21.2287ZM123.785 20.8721C124.535 20.6041 125.162 20.1581 125.603 19.5137L123.954 18.3833C123.782 18.6338 123.522 18.8424 123.112 18.9887L123.785 20.8721ZM125.596 19.524C126.062 18.8619 126.251 18.0582 126.251 17.196H124.251C124.251 17.7757 124.125 18.1402 123.961 18.373L125.596 19.524ZM126.251 17.196C126.251 16.3273 126.063 15.5186 125.601 14.8502L123.956 15.9871C124.124 16.2302 124.251 16.6064 124.251 17.196H126.251ZM125.613 14.8674C125.176 14.2066 124.552 13.7427 123.797 13.4621L123.1 15.3369C123.505 15.4872 123.768 15.7028 123.944 15.9699L125.613 14.8674ZM123.813 13.4683C123.094 13.187 122.272 13.0639 121.373 13.0639V15.0639C122.098 15.0639 122.659 15.1645 123.084 15.3307L123.813 13.4683ZM121.373 13.0639H118.937V15.0639H121.373V13.0639ZM117.937 14.0639V34H119.937V14.0639H117.937ZM118.937 33H112.026V35H118.937V33ZM126.063 22.7951L132.427 34.4783L134.183 33.5217L127.819 21.8384L126.063 22.7951ZM133.305 33H125.798V35H133.305V33ZM126.681 33.5304L120.466 21.8471L118.7 22.7864L124.915 34.4696L126.681 33.5304ZM119.583 23.3168H126.941V21.3168H119.583V23.3168ZM150.877 16.5L149.88 16.5797L149.954 17.5H150.877V16.5ZM149.945 14.5611L149.298 15.3236L149.303 15.3284L149.945 14.5611ZM145.694 14.1261L146.041 15.0639L146.051 15.0603L145.694 14.1261ZM144.7 14.8097L143.897 14.2133L143.897 14.2133L144.7 14.8097ZM144.364 15.804L145.363 15.858L145.363 15.8421L145.364 15.8262L144.364 15.804ZM144.526 16.6367L143.631 17.0839L143.64 17.1021L143.65 17.1198L144.526 16.6367ZM145.147 17.2955L144.57 18.1124L144.579 18.1182L144.587 18.1237L145.147 17.2955ZM147.794 18.2401L148.004 17.2622L147.996 17.2605L147.794 18.2401ZM149.883 18.6875L149.673 19.6653L149.675 19.6658L149.883 18.6875ZM153.499 19.8683L153.061 20.7671L153.499 19.8683ZM155.96 21.5959L155.24 22.2894L155.244 22.2939L155.96 21.5959ZM157.365 23.8082L156.425 24.15L156.428 24.1583L157.365 23.8082ZM157.837 26.4929L158.837 26.4978L158.837 26.4844L157.837 26.4929ZM156.582 30.7436L157.395 31.3248L157.395 31.3248L156.582 30.7436ZM153.027 33.391L152.662 32.4601L152.66 32.4608L153.027 33.391ZM141.704 33.3164L141.334 34.2452L141.335 34.2458L141.704 33.3164ZM137.876 30.2962L137.042 30.8474L137.046 30.8532L137.876 30.2962ZM136.509 25.0511V24.0511H135.505L135.509 25.055L136.509 25.0511ZM143.071 25.0511L144.07 24.998L144.02 24.0511H143.071V25.0511ZM143.656 27.0149L142.82 27.5636L142.82 27.5636L143.656 27.0149ZM145.122 28.2205L144.724 29.1378L144.728 29.1397L145.122 28.2205ZM149.249 28.3572L149.593 29.2961L149.593 29.2961L149.249 28.3572ZM150.38 27.5991L151.163 28.2213L151.163 28.2213L150.38 27.5991ZM150.777 26.4929L151.777 26.5129L151.778 26.4923L151.777 26.4716L150.777 26.4929ZM150.392 25.4737L149.613 26.1011L149.623 26.1129L149.633 26.1245L150.392 25.4737ZM149.199 24.6783L148.802 25.5961L148.813 25.6009L149.199 24.6783ZM146.949 24.0071L147.164 23.0303L147.16 23.0296L146.949 24.0071ZM144.414 23.4602L144.202 24.4375L144.203 24.4377L144.414 23.4602ZM139.082 21.0117L138.416 21.7584L138.422 21.7628L139.082 21.0117ZM137.155 16.3011L138.155 16.3053L138.155 16.296L137.155 16.3011ZM138.448 12.0629L137.637 11.478L137.636 11.479L138.448 12.0629ZM142.09 9.21662L141.69 8.30001L141.688 8.3008L142.09 9.21662ZM152.778 9.22905L152.362 10.138L152.362 10.138L152.778 9.22905ZM156.246 12.1374L155.407 12.6818L155.412 12.6883L156.246 12.1374ZM157.489 16.5V17.5H158.494L158.489 16.495L157.489 16.5ZM151.874 16.4203C151.789 15.3674 151.378 14.456 150.586 13.7938L149.303 15.3284C149.621 15.5942 149.832 15.9754 149.88 16.5797L151.874 16.4203ZM150.592 13.7986C149.787 13.1157 148.676 12.8651 147.446 12.8651V14.8651C148.454 14.8651 149.009 15.0784 149.298 15.3236L150.592 13.7986ZM147.446 12.8651C146.663 12.8651 145.947 12.9592 145.337 13.1918L146.051 15.0603C146.353 14.9449 146.805 14.8651 147.446 14.8651V12.8651ZM145.347 13.1883C144.775 13.4002 144.26 13.7252 143.897 14.2133L145.502 15.406C145.571 15.3141 145.718 15.1834 146.041 15.0638L145.347 13.1883ZM143.897 14.2133C143.554 14.6753 143.377 15.2089 143.364 15.7818L145.364 15.8262C145.368 15.6533 145.415 15.524 145.502 15.406L143.897 14.2133ZM143.366 15.75C143.341 16.2113 143.421 16.6643 143.631 17.0839L145.42 16.1895C145.381 16.112 145.354 16.0099 145.363 15.858L143.366 15.75ZM143.65 17.1198C143.872 17.5221 144.196 17.8481 144.57 18.1124L145.724 16.4785C145.535 16.3451 145.444 16.2319 145.401 16.1536L143.65 17.1198ZM144.587 18.1237C144.958 18.3749 145.4 18.5828 145.891 18.7588L146.566 16.8761C146.179 16.7373 145.9 16.5972 145.707 16.4672L144.587 18.1237ZM145.891 18.7588C146.386 18.9363 146.956 19.0886 147.593 19.2196L147.996 17.2605C147.423 17.1429 146.949 17.0135 146.566 16.8761L145.891 18.7588ZM147.585 19.2179L149.673 19.6653L150.092 17.7097L148.004 17.2623L147.585 19.2179ZM149.675 19.6658C151.026 19.9518 152.15 20.3227 153.061 20.7671L153.938 18.9694C152.844 18.4361 151.556 18.0198 150.09 17.7092L149.675 19.6658ZM153.061 20.7671C153.98 21.2152 154.698 21.7267 155.24 22.2893L156.681 20.9024C155.946 20.1393 155.024 19.4991 153.938 18.9694L153.061 20.7671ZM155.244 22.2939C155.788 22.8518 156.177 23.4692 156.425 24.15L158.305 23.4665C157.956 22.5066 157.409 21.6491 156.676 20.8979L155.244 22.2939ZM156.428 24.1583C156.69 24.8583 156.83 25.6362 156.837 26.5014L158.837 26.4844C158.828 25.4107 158.653 24.3988 158.302 23.4582L156.428 24.1583ZM156.837 26.4879C156.83 27.992 156.457 29.1984 155.768 30.1624L157.395 31.3248C158.364 29.9688 158.828 28.3413 158.837 26.4978L156.837 26.4879ZM155.768 30.1624C155.069 31.1408 154.053 31.9143 152.662 32.4601L153.392 34.3219C155.084 33.6579 156.437 32.6665 157.395 31.3248L155.768 30.1624ZM152.66 32.4608C151.274 33.0078 149.562 33.2983 147.496 33.2983V35.2983C149.74 35.2983 151.715 34.984 153.394 34.3212L152.66 32.4608ZM147.496 33.2983C145.38 33.2983 143.58 32.985 142.073 32.387L141.335 34.2458C143.127 34.957 145.188 35.2983 147.496 35.2983V33.2983ZM142.075 32.3876C140.606 31.8015 139.497 30.9171 138.707 29.7391L137.046 30.8532C138.078 32.393 139.521 33.5221 141.334 34.2452L142.075 32.3876ZM138.711 29.745C137.943 28.5824 137.517 27.0396 137.509 25.0472L135.509 25.055C135.518 27.3216 136.003 29.2756 137.042 30.8474L138.711 29.745ZM136.509 26.0511H143.071V24.0511H136.509V26.0511ZM142.073 25.1043C142.122 26.0195 142.355 26.8549 142.82 27.5636L144.492 26.4663C144.261 26.1143 144.104 25.6406 144.07 24.998L142.073 25.1043ZM142.82 27.5636C143.283 28.2702 143.931 28.7934 144.724 29.1378L145.521 27.3033C145.054 27.1008 144.724 26.8202 144.492 26.4663L142.82 27.5636ZM144.728 29.1397C145.519 29.4786 146.418 29.6307 147.397 29.6307V27.6307C146.619 27.6307 146.001 27.5093 145.516 27.3014L144.728 29.1397ZM147.397 29.6307C148.209 29.6307 148.951 29.5313 149.593 29.2961L148.904 27.4184C148.552 27.5478 148.059 27.6307 147.397 27.6307V29.6307ZM149.593 29.2961C150.215 29.0682 150.763 28.7237 151.163 28.2213L149.597 26.9768C149.482 27.1208 149.277 27.2817 148.904 27.4184L149.593 29.2961ZM151.163 28.2213C151.556 27.7259 151.765 27.1454 151.777 26.5129L149.778 26.4729C149.774 26.669 149.717 26.8259 149.597 26.9768L151.163 28.2213ZM151.777 26.4716C151.764 25.8558 151.554 25.2924 151.151 24.8229L149.633 26.1245C149.728 26.2351 149.774 26.3511 149.778 26.5142L151.777 26.4716ZM151.171 24.8464C150.783 24.3649 150.214 24.0187 149.585 23.7556L148.813 25.6009C149.294 25.8019 149.521 25.9859 149.613 26.1011L151.171 24.8464ZM149.596 23.7605C148.958 23.4843 148.138 23.2441 147.164 23.0303L146.735 24.9839C147.649 25.1844 148.33 25.3917 148.802 25.596L149.596 23.7605ZM147.16 23.0296L144.625 22.4827L144.203 24.4377L146.738 24.9846L147.16 23.0296ZM144.626 22.483C142.485 22.0186 140.88 21.2607 139.742 20.2606L138.422 21.7628C139.886 23.0497 141.835 23.9241 144.202 24.4375L144.626 22.483ZM139.747 20.2651C138.701 19.3333 138.148 18.0544 138.155 16.3053L136.155 16.297C136.146 18.5251 136.877 20.3866 138.417 21.7583L139.747 20.2651ZM138.155 16.296C138.148 14.8727 138.524 13.6703 139.26 12.6467L137.636 11.479C136.632 12.8749 136.146 14.498 136.155 16.3063L138.155 16.296ZM139.259 12.6477C140.02 11.5923 141.084 10.7494 142.491 10.1324L141.688 8.3008C139.996 9.04271 138.632 10.0973 137.637 11.478L139.259 12.6477ZM142.489 10.1332C143.9 9.51798 145.546 9.19744 147.446 9.19744V7.19744C145.32 7.19744 143.395 7.55636 141.69 8.30001L142.489 10.1332ZM147.446 9.19744C149.392 9.19744 151.021 9.5231 152.362 10.138L153.195 8.32006C151.537 7.55952 149.611 7.19744 147.446 7.19744V9.19744ZM152.362 10.138C153.708 10.7554 154.709 11.6063 155.407 12.6818L157.085 11.593C156.159 10.1661 154.849 9.07817 153.195 8.32006L152.362 10.138ZM155.412 12.6883C156.113 13.7504 156.482 15.0099 156.489 16.505L158.489 16.495C158.48 14.6592 158.02 13.0103 157.081 11.5866L155.412 12.6883ZM157.489 15.5H150.877V17.5H157.489V15.5Z" fill="#393939"/>
<path d="M15.3622 19.5C15.2959 18.6714 14.9852 18.0251 14.43 17.5611C13.8832 17.0971 13.0504 16.8651 11.9318 16.8651C11.2192 16.8651 10.6351 16.9521 10.1793 17.1261C9.73189 17.2918 9.40045 17.5196 9.18501 17.8097C8.96958 18.0997 8.85772 18.4311 8.84943 18.804C8.83286 19.1106 8.88672 19.3881 9.01101 19.6367C9.14358 19.877 9.35073 20.0966 9.63246 20.2955C9.91418 20.486 10.2746 20.66 10.7138 20.8175C11.1529 20.9749 11.675 21.1158 12.2798 21.2401L14.3679 21.6875C15.7765 21.9858 16.9821 22.3794 17.9847 22.8683C18.9873 23.3571 19.8076 23.933 20.4457 24.5959C21.0837 25.2505 21.5518 25.9879 21.8501 26.8082C22.1567 27.6286 22.3142 28.5234 22.3224 29.4929C22.3142 31.1667 21.8957 32.5836 21.0671 33.7436C20.2385 34.9036 19.0536 35.7861 17.5124 36.391C15.9795 36.9959 14.1359 37.2983 11.9815 37.2983C9.76918 37.2983 7.83854 36.971 6.18963 36.3164C4.54901 35.6618 3.27296 34.6551 2.36151 33.2962C1.45833 31.929 1.0026 30.1806 0.994318 28.0511H7.55682C7.59825 28.83 7.79297 29.4846 8.14098 30.0149C8.48899 30.5452 8.97786 30.9471 9.6076 31.2205C10.2456 31.494 11.0038 31.6307 11.8821 31.6307C12.6196 31.6307 13.2369 31.5395 13.734 31.3572C14.2312 31.175 14.6082 30.9222 14.8651 30.5991C15.1219 30.2759 15.2545 29.9072 15.2628 29.4929C15.2545 29.1035 15.1261 28.7637 14.8775 28.4737C14.6372 28.1754 14.2395 27.9103 13.6843 27.6783C13.1291 27.438 12.3793 27.2143 11.4347 27.0071L8.89915 26.4602C6.64536 25.9714 4.86802 25.1552 3.56712 24.0117C2.2745 22.86 1.63234 21.2898 1.64062 19.3011C1.63234 17.6854 2.06321 16.2726 2.93324 15.0629C3.81155 13.8448 5.02545 12.8961 6.57493 12.2166C8.13269 11.5372 9.91832 11.1974 11.9318 11.1974C13.9867 11.1974 15.7641 11.5413 17.2638 12.229C18.7636 12.9168 19.9195 13.8862 20.7315 15.1374C21.5518 16.3803 21.9661 17.8345 21.9744 19.5H15.3622ZM48.7253 11.5455V37H42.9583L33.7608 23.6264H33.6117V37H26.7012V11.5455H32.5676L41.6159 24.8693H41.8148V11.5455H48.7253ZM52.7001 11.5455H60.4061L65.3777 21.8864H65.5765L70.5481 11.5455H78.2541L68.9075 28.9957V37H62.0467V28.9957L52.7001 11.5455ZM82.2568 37V11.5455H89.1673V21.8366H89.5154L97.1716 11.5455H105.226L96.6247 22.8807L105.424 37H97.1716L91.4543 27.4545L89.1673 30.4375V37H82.2568ZM109.026 37V11.5455H120.014C121.903 11.5455 123.556 11.8893 124.973 12.5771C126.39 13.2648 127.492 14.255 128.279 15.5476C129.066 16.8402 129.46 18.3897 129.46 20.196C129.46 22.0189 129.054 23.556 128.242 24.8072C127.438 26.0584 126.307 27.003 124.848 27.641C123.398 28.279 121.704 28.598 119.765 28.598H113.203V23.2287H118.373C119.185 23.2287 119.877 23.1293 120.449 22.9304C121.029 22.7232 121.472 22.396 121.778 21.9485C122.093 21.5011 122.251 20.9169 122.251 20.196C122.251 19.4669 122.093 18.8744 121.778 18.4187C121.472 17.9547 121.029 17.6149 120.449 17.3995C119.877 17.1758 119.185 17.0639 118.373 17.0639H115.937V37H109.026ZM123.941 25.3168L130.305 37H122.798L116.583 25.3168H123.941ZM147.877 19.5C147.811 18.6714 147.5 18.0251 146.945 17.5611C146.398 17.0971 145.565 16.8651 144.446 16.8651C143.734 16.8651 143.15 16.9521 142.694 17.1261C142.247 17.2918 141.915 17.5196 141.7 17.8097C141.484 18.0997 141.372 18.4311 141.364 18.804C141.348 19.1106 141.401 19.3881 141.526 19.6367C141.658 19.877 141.865 20.0966 142.147 20.2955C142.429 20.486 142.789 20.66 143.228 20.8175C143.668 20.9749 144.19 21.1158 144.794 21.2401L146.883 21.6875C148.291 21.9858 149.497 22.3794 150.499 22.8683C151.502 23.3571 152.322 23.933 152.96 24.5959C153.598 25.2505 154.066 25.9879 154.365 26.8082C154.671 27.6286 154.829 28.5234 154.837 29.4929C154.829 31.1667 154.41 32.5836 153.582 33.7436C152.753 34.9036 151.568 35.7861 150.027 36.391C148.494 36.9959 146.651 37.2983 144.496 37.2983C142.284 37.2983 140.353 36.971 138.704 36.3164C137.064 35.6618 135.788 34.6551 134.876 33.2962C133.973 31.929 133.517 30.1806 133.509 28.0511H140.071C140.113 28.83 140.308 29.4846 140.656 30.0149C141.004 30.5452 141.493 30.9471 142.122 31.2205C142.76 31.494 143.518 31.6307 144.397 31.6307C145.134 31.6307 145.752 31.5395 146.249 31.3572C146.746 31.175 147.123 30.9222 147.38 30.5991C147.637 30.2759 147.769 29.9072 147.777 29.4929C147.769 29.1035 147.641 28.7637 147.392 28.4737C147.152 28.1754 146.754 27.9103 146.199 27.6783C145.644 27.438 144.894 27.2143 143.949 27.0071L141.414 26.4602C139.16 25.9714 137.383 25.1552 136.082 24.0117C134.789 22.86 134.147 21.2898 134.155 19.3011C134.147 17.6854 134.578 16.2726 135.448 15.0629C136.326 13.8448 137.54 12.8961 139.09 12.2166C140.647 11.5372 142.433 11.1974 144.446 11.1974C146.501 11.1974 148.279 11.5413 149.778 12.229C151.278 12.9168 152.434 13.8862 153.246 15.1374C154.066 16.3803 154.481 17.8345 154.489 19.5H147.877Z" fill="#393939"/>
</svg>
