<svg width="251" height="73" viewBox="0 0 251 73" fill="none" xmlns="http://www.w3.org/2000/svg">
<path d="M30.1406 26.5L29.1438 26.5797L29.2174 27.5H30.1406V26.5ZM28.6758 23.4531L28.0288 24.2157L28.0345 24.2204L28.6758 23.4531ZM21.9961 22.7695L22.3434 23.7073L22.3528 23.7037L21.9961 22.7695ZM20.4336 23.8437L19.6309 23.2474L19.6309 23.2474L20.4336 23.8437ZM19.9062 25.4062L20.9048 25.4602L20.9056 25.4444L20.906 25.4285L19.9062 25.4062ZM20.1602 26.7148L19.2657 27.1621L19.2748 27.1802L19.2846 27.1979L20.1602 26.7148ZM21.1367 27.75L20.56 28.567L20.5682 28.5727L20.5764 28.5783L21.1367 27.75ZM25.2969 29.2344L25.5064 28.2565L25.4982 28.2548L25.2969 29.2344ZM28.5781 29.9375L28.3686 30.9153L28.371 30.9158L28.5781 29.9375ZM34.2617 31.793L33.8234 32.6918L34.2617 31.793ZM38.1289 34.5078L37.4084 35.2013L37.4128 35.2058L38.1289 34.5078ZM40.3359 37.9844L39.3961 38.3261L39.3992 38.3345L40.3359 37.9844ZM41.0781 42.2031L42.0782 42.2081L42.0781 42.1946L41.0781 42.2031ZM39.1055 48.8828L39.9192 49.4641L39.9192 49.4641L39.1055 48.8828ZM33.5195 53.043L33.1542 52.1121L33.1525 52.1128L33.5195 53.043ZM15.7266 52.9258L15.356 53.8546L15.3576 53.8552L15.7266 52.9258ZM9.71094 48.1797L8.87654 48.7309L8.88045 48.7367L9.71094 48.1797ZM7.5625 39.9375V38.9375H6.5586L6.56251 39.9414L7.5625 39.9375ZM17.875 39.9375L18.8736 39.8844L18.8232 38.9375H17.875V39.9375ZM18.793 43.0234L17.9569 43.5721L17.9569 43.5721L18.793 43.0234ZM21.0977 44.918L20.6994 45.8352L20.7037 45.8371L21.0977 44.918ZM27.582 45.1328L27.9263 46.0717L27.9263 46.0717L27.582 45.1328ZM29.3594 43.9414L30.1422 44.5637L30.1422 44.5636L29.3594 43.9414ZM29.9844 42.2031L30.9842 42.2231L30.9846 42.2025L30.9841 42.1819L29.9844 42.2031ZM29.3789 40.6016L28.6002 41.2289L28.6097 41.2408L28.6196 41.2524L29.3789 40.6016ZM27.5039 39.3516L27.1067 40.2694L27.1183 40.2742L27.5039 39.3516ZM23.9688 38.2969L24.183 37.3201L24.1796 37.3194L23.9688 38.2969ZM19.9844 37.4375L19.7724 38.4148L19.7735 38.415L19.9844 37.4375ZM11.6055 33.5898L10.9402 34.3365L10.9453 34.3409L11.6055 33.5898ZM8.57812 26.1875L9.57816 26.1917L9.57811 26.1824L8.57812 26.1875ZM10.6094 19.5273L9.79826 18.9425L9.79752 18.9435L10.6094 19.5273ZM16.332 15.0547L15.9322 14.1381L15.9304 14.1389L16.332 15.0547ZM33.1289 15.0742L32.7121 15.9832L32.7121 15.9832L33.1289 15.0742ZM38.5781 19.6445L37.7393 20.189L37.7435 20.1954L38.5781 19.6445ZM40.5313 26.5V27.5H41.5362L41.5312 26.495L40.5313 26.5ZM31.1374 26.4203C31.0153 24.8939 30.4266 23.6132 29.3171 22.6858L28.0345 24.2204C28.6698 24.7514 29.0576 25.5019 29.1438 26.5797L31.1374 26.4203ZM29.3228 22.6906C28.2055 21.7426 26.6188 21.3594 24.75 21.3594V23.3594C26.3969 23.3594 27.4273 23.7053 28.0288 24.2156L29.3228 22.6906ZM24.75 21.3594C23.5595 21.3594 22.5091 21.5033 21.6394 21.8353L22.3528 23.7037C22.9154 23.4889 23.701 23.3594 24.75 23.3594V21.3594ZM21.6488 21.8318C20.8211 22.1383 20.1166 22.5936 19.6309 23.2474L21.2363 24.4401C21.4277 24.1825 21.7648 23.9216 22.3434 23.7073L21.6488 21.8318ZM19.6309 23.2474C19.1645 23.8751 18.924 24.5981 18.9065 25.384L20.906 25.4285C20.9146 25.0425 21.0256 24.7238 21.2363 24.4401L19.6309 23.2474ZM18.9077 25.3523C18.8733 25.9887 18.9849 26.6004 19.2657 27.1621L21.0546 26.2676C20.9448 26.0481 20.8871 25.7873 20.9048 25.4602L18.9077 25.3523ZM19.2846 27.1979C19.5823 27.7375 20.0246 28.189 20.56 28.567L21.7134 26.933C21.3634 26.686 21.1547 26.4474 21.0357 26.2318L19.2846 27.1979ZM20.5764 28.5783C21.1086 28.9383 21.7566 29.2457 22.4985 29.5117L23.1734 27.629C22.5351 27.4001 22.0502 27.1606 21.697 26.9217L20.5764 28.5783ZM22.4985 29.5117C23.2446 29.7791 24.1127 30.0119 25.0956 30.2139L25.4982 28.2548C24.58 28.0662 23.8075 27.8563 23.1734 27.629L22.4985 29.5117ZM25.0873 30.2122L28.3686 30.9153L28.7877 28.9597L25.5064 28.2566L25.0873 30.2122ZM28.371 30.9158C30.5263 31.3722 32.3391 31.968 33.8234 32.6918L34.7 30.8941C33.0333 30.0814 31.057 29.4403 28.7853 28.9592L28.371 30.9158ZM33.8234 32.6918C35.3153 33.4192 36.5023 34.2599 37.4084 35.2013L38.8494 33.8143C37.7503 32.6724 36.3592 31.7032 34.7 30.8941L33.8234 32.6918ZM37.4128 35.2058C38.3212 36.1378 38.9781 37.1766 39.3961 38.3261L41.2757 37.6426C40.7562 36.214 39.9418 34.9351 38.845 33.8098L37.4128 35.2058ZM39.3992 38.3345C39.836 39.5032 40.066 40.7925 40.0782 42.2117L42.0781 42.1946C42.0642 40.5669 41.7994 39.0437 41.2727 37.6343L39.3992 38.3345ZM40.0781 42.1982C40.066 44.6587 39.4538 46.6747 38.2917 48.3016L39.9192 49.4641C41.3613 47.4451 42.0643 45.008 42.0781 42.2081L40.0781 42.1982ZM38.2917 48.3016C37.1194 49.9429 35.4256 51.2206 33.1542 52.1121L33.8849 53.9738C36.4572 52.9643 38.4874 51.4686 39.9192 49.4641L38.2917 48.3016ZM33.1525 52.1128C30.8903 53.0054 28.1245 53.4688 24.8281 53.4688V55.4688C28.3025 55.4688 31.331 54.9816 33.8866 53.9732L33.1525 52.1128ZM24.8281 53.4688C21.4478 53.4688 18.5442 52.9684 16.0955 51.9963L15.3576 53.8552C18.0912 54.9404 21.2553 55.4688 24.8281 55.4688V53.4688ZM16.0971 51.997C13.6907 51.0368 11.8524 49.5772 10.5414 47.6227L8.88045 48.7367C10.4341 51.0531 12.6062 52.7575 15.356 53.8546L16.0971 51.997ZM10.5453 47.6285C9.26119 45.6846 8.57498 43.1429 8.56249 39.9336L6.56251 39.9414C6.57606 43.4248 7.32214 46.3779 8.87656 48.7309L10.5453 47.6285ZM7.5625 40.9375H17.875V38.9375H7.5625V40.9375ZM16.8764 39.9906C16.9488 41.3509 17.293 42.5604 17.9569 43.5721L19.629 42.4748C19.1992 41.8198 18.9314 40.972 18.8736 39.8844L16.8764 39.9906ZM17.9569 43.5721C18.6195 44.5818 19.5464 45.3346 20.6994 45.8352L21.4959 44.0007C20.6697 43.6419 20.0602 43.1318 19.629 42.4748L17.9569 43.5721ZM20.7037 45.8371C21.8591 46.3323 23.1909 46.5625 24.6719 46.5625V44.5625C23.3925 44.5625 22.3414 44.363 21.4916 43.9988L20.7037 45.8371ZM24.6719 46.5625C25.9055 46.5625 27.0008 46.411 27.9263 46.0717L27.2378 44.1939C26.6008 44.4275 25.756 44.5625 24.6719 44.5625V46.5625ZM27.9263 46.0717C28.832 45.7396 29.5961 45.2507 30.1422 44.5637L28.5766 43.3192C28.3153 43.6478 27.8945 43.9531 27.2378 44.1939L27.9263 46.0717ZM30.1422 44.5636C30.6828 43.8836 30.9668 43.0924 30.9842 42.2231L28.9846 42.1831C28.9759 42.616 28.8433 42.9836 28.5766 43.3192L30.1422 44.5636ZM30.9841 42.1819C30.9663 41.3435 30.6826 40.5859 30.1382 39.9508L28.6196 41.2524C28.8565 41.5286 28.9764 41.8388 28.9846 42.2244L30.9841 42.1819ZM30.1577 39.9742C29.6325 39.3223 28.8362 38.8245 27.8895 38.4289L27.1183 40.2742C27.9164 40.6078 28.3701 40.9433 28.6002 41.2289L30.1577 39.9742ZM27.9011 38.4338C26.9456 38.0202 25.6976 37.6523 24.183 37.3201L23.7545 39.2737C25.2086 39.5925 26.3175 39.9277 27.1067 40.2693L27.9011 38.4338ZM24.1796 37.3194L20.1952 36.46L19.7735 38.415L23.7579 39.2744L24.1796 37.3194ZM20.1964 36.4602C16.7678 35.7165 14.1468 34.4922 12.2657 32.8388L10.9453 34.3409C13.1527 36.2812 16.1176 37.622 19.7724 38.4148L20.1964 36.4602ZM12.2707 32.8432C10.4864 31.2533 9.56609 29.0772 9.57812 26.1917L7.57813 26.1833C7.56411 29.5478 8.66206 32.3066 10.9402 34.3365L12.2707 32.8432ZM9.57811 26.1824C9.56608 23.8358 10.1879 21.8261 11.4212 20.1112L9.79752 18.9435C8.29643 21.0307 7.56413 23.4611 7.57814 26.1926L9.57811 26.1824ZM11.4205 20.1122C12.6835 18.3608 14.4412 16.9758 16.7336 15.9705L15.9304 14.1389C13.3531 15.269 11.2957 16.8658 9.79826 18.9425L11.4205 20.1122ZM16.7318 15.9713C19.0325 14.9678 21.6985 14.4531 24.75 14.4531V12.4531C21.4734 12.4531 18.5274 13.0062 15.9322 14.1381L16.7318 15.9713ZM24.75 14.4531C27.8696 14.4531 30.5141 14.9753 32.7121 15.9832L33.5457 14.1652C31.0302 13.0117 28.0887 12.4531 24.75 12.4531V14.4531ZM32.7121 15.9832C34.9154 16.9936 36.5773 18.3985 37.7393 20.1889L39.417 19.1001C38.0269 16.9583 36.056 15.3163 33.5457 14.1652L32.7121 15.9832ZM37.7435 20.1954C38.9132 21.9677 39.5191 24.0582 39.5313 26.505L41.5312 26.495C41.5174 23.7075 40.8211 21.2276 39.4127 19.0937L37.7435 20.1954ZM40.5313 25.5H30.1406V27.5H40.5313V25.5ZM82.5684 14H83.5684V13H82.5684V14ZM82.5684 54V55H83.5684V54H82.5684ZM73.5059 54L72.6819 54.5667L72.9799 55H73.5059V54ZM59.0527 32.9844L59.8767 32.4177L59.5787 31.9844H59.0527V32.9844ZM58.8184 32.9844V31.9844H57.8184V32.9844H58.8184ZM58.8184 54V55H59.8184V54H58.8184ZM47.959 54H46.959V55H47.959V54ZM47.959 14V13H46.959V14H47.959ZM57.1777 14L58.005 13.4382L57.7074 13H57.1777V14ZM71.3965 34.9375L70.5692 35.4993L70.8668 35.9375H71.3965V34.9375ZM71.709 34.9375V35.9375H72.709V34.9375H71.709ZM71.709 14V13H70.709V14H71.709ZM81.5684 14V54H83.5684V14H81.5684ZM82.5684 53H73.5059V55H82.5684V53ZM74.3298 53.4333L59.8767 32.4177L58.2288 33.551L72.6819 54.5667L74.3298 53.4333ZM59.0527 31.9844H58.8184V33.9844H59.0527V31.9844ZM57.8184 32.9844V54H59.8184V32.9844H57.8184ZM58.8184 53H47.959V55H58.8184V53ZM48.959 54V14H46.959V54H48.959ZM47.959 15H57.1777V13H47.959V15ZM56.3505 14.5618L70.5692 35.4993L72.2238 34.3757L58.005 13.4382L56.3505 14.5618ZM71.3965 35.9375H71.709V33.9375H71.3965V35.9375ZM72.709 34.9375V14H70.709V34.9375H72.709ZM71.709 15H82.5684V13H71.709V15ZM88.8145 14V13H87.1444L87.9329 14.4722L88.8145 14ZM100.924 14L101.825 13.5667L101.553 13H100.924V14ZM108.736 30.25L107.835 30.6833L108.108 31.25H108.736V30.25ZM109.049 30.25V31.25H109.678L109.95 30.6833L109.049 30.25ZM116.861 14V13H116.233L115.96 13.5667L116.861 14ZM128.971 14L129.852 14.4722L130.641 13H128.971V14ZM114.283 41.4219L113.402 40.9497L113.283 41.1709V41.4219H114.283ZM114.283 54V55H115.283V54H114.283ZM103.502 54H102.502V55H103.502V54ZM103.502 41.4219H104.502V41.1709L104.383 40.9497L103.502 41.4219ZM88.8145 15H100.924V13H88.8145V15ZM100.023 14.4333L107.835 30.6833L109.638 29.8167L101.825 13.5667L100.023 14.4333ZM108.736 31.25H109.049V29.25H108.736V31.25ZM109.95 30.6833L117.763 14.4333L115.96 13.5667L108.148 29.8167L109.95 30.6833ZM116.861 15H128.971V13H116.861V15ZM128.089 13.5278L113.402 40.9497L115.165 41.894L129.852 14.4722L128.089 13.5278ZM113.283 41.4219V54H115.283V41.4219H113.283ZM114.283 53H103.502V55H114.283V53ZM104.502 54V41.4219H102.502V54H104.502ZM104.383 40.9497L89.696 13.5278L87.9329 14.4722L102.62 41.894L104.383 40.9497ZM135.261 54H134.261V55H135.261V54ZM135.261 14V13H134.261V14H135.261ZM146.12 14H147.12V13H146.12V14ZM146.12 30.1719H145.12V31.1719H146.12V30.1719ZM146.667 30.1719V31.1719H147.169L147.469 30.7688L146.667 30.1719ZM158.698 14V13H158.196L157.896 13.4031L158.698 14ZM171.354 14L172.151 14.6045L173.369 13H171.354V14ZM157.839 31.8125L157.042 31.208L156.626 31.7568L156.99 32.3414L157.839 31.8125ZM171.667 54V55H173.469L172.516 53.4711L171.667 54ZM158.698 54L157.84 54.5138L158.132 55H158.698V54ZM149.714 39L150.572 38.4862L149.816 37.2237L148.92 38.3916L149.714 39ZM146.12 43.6875L145.327 43.0791L145.12 43.3483V43.6875H146.12ZM146.12 54V55H147.12V54H146.12ZM136.261 54V14H134.261V54H136.261ZM135.261 15H146.12V13H135.261V15ZM145.12 14V30.1719H147.12V14H145.12ZM146.12 31.1719H146.667V29.1719H146.12V31.1719ZM147.469 30.7688L159.501 14.5969L157.896 13.4031L145.865 29.575L147.469 30.7688ZM158.698 15H171.354V13H158.698V15ZM170.558 13.3955L157.042 31.208L158.636 32.417L172.151 14.6045L170.558 13.3955ZM156.99 32.3414L170.818 54.5289L172.516 53.4711L158.688 31.2836L156.99 32.3414ZM171.667 53H158.698V55H171.667V53ZM159.556 53.4862L150.572 38.4862L148.856 39.5138L157.84 54.5138L159.556 53.4862ZM148.92 38.3916L145.327 43.0791L146.914 44.2959L150.507 39.6084L148.92 38.3916ZM145.12 43.6875V54H147.12V43.6875H145.12ZM146.12 53H135.261V55H146.12V53ZM177.327 54H176.327V55H177.327V54ZM177.327 14V13H176.327V14H177.327ZM202.386 15.6211L201.949 16.5207L202.386 15.6211ZM207.581 20.2891L208.435 19.7689L208.435 19.7689L207.581 20.2891ZM207.522 34.8398L206.684 34.2954L206.681 34.2994L207.522 34.8398ZM202.19 39.293L201.79 38.3768L201.788 38.3777L202.19 39.293ZM183.89 40.7969H182.89V41.7969H183.89V40.7969ZM183.89 32.3594V31.3594H182.89V32.3594H183.89ZM195.276 31.8906L195.605 32.8352L195.613 32.8324L195.276 31.8906ZM197.366 30.3477L196.548 29.7721L196.541 29.7824L197.366 30.3477ZM197.366 24.8008L196.532 25.352L196.538 25.3607L196.543 25.3692L197.366 24.8008ZM195.276 23.1992L194.912 24.1305L194.92 24.1336L194.928 24.1366L195.276 23.1992ZM188.187 22.6719V21.6719H187.187V22.6719H188.187ZM188.187 54V55H189.187V54H188.187ZM200.765 35.6406L201.643 35.1623L201.359 34.6406H200.765V35.6406ZM210.765 54V55H212.448L211.643 53.5217L210.765 54ZM198.968 54L198.085 54.4696L198.367 55H198.968V54ZM189.202 35.6406V34.6406H187.538L188.319 36.1102L189.202 35.6406ZM178.327 54V14H176.327V54H178.327ZM177.327 15H194.593V13H177.327V15ZM194.593 15C197.44 15 199.883 15.5179 201.949 16.5207L202.822 14.7215C200.435 13.5628 197.683 13 194.593 13V15ZM201.949 16.5207C204.01 17.5212 205.594 18.9488 206.727 20.8092L208.435 19.7689C207.094 17.5669 205.214 15.8824 202.822 14.7215L201.949 16.5207ZM206.727 20.8092C207.851 22.6558 208.437 24.9029 208.437 27.5937H210.437C210.437 24.6075 209.785 21.9849 208.435 19.7689L206.727 20.8092ZM208.437 27.5937C208.437 30.3083 207.833 32.5242 206.684 34.2954L208.361 35.3842C209.764 33.2232 210.437 30.6084 210.437 27.5937H208.437ZM206.681 34.2994C205.532 36.0877 203.914 37.4474 201.79 38.3768L202.591 40.2091C205.05 39.1333 206.987 37.5242 208.364 35.3803L206.681 34.2994ZM201.788 38.3777C199.661 39.3134 197.141 39.7969 194.202 39.7969V41.7969C197.357 41.7969 200.163 41.2778 202.593 40.2083L201.788 38.3777ZM194.202 39.7969H183.89V41.7969H194.202V39.7969ZM184.89 40.7969V32.3594H182.89V40.7969H184.89ZM183.89 33.3594H192.015V31.3594H183.89V33.3594ZM192.015 33.3594C193.367 33.3594 194.572 33.1945 195.605 32.8351L194.948 30.9461C194.184 31.2117 193.215 31.3594 192.015 31.3594V33.3594ZM195.613 32.8324C196.695 32.446 197.574 31.8129 198.191 30.9129L196.541 29.7824C196.194 30.2887 195.681 30.6842 194.94 30.9489L195.613 32.8324ZM198.184 30.9231C198.83 30.0054 199.108 28.8678 199.108 27.5937H197.108C197.108 28.5853 196.892 29.2837 196.548 29.7722L198.184 30.9231ZM199.108 27.5937C199.108 26.3083 198.831 25.1611 198.189 24.2323L196.543 25.3692C196.891 25.8727 197.108 26.5875 197.108 27.5937H199.108ZM198.201 24.2495C197.589 23.3235 196.711 22.6655 195.625 22.2618L194.928 24.1366C195.664 24.41 196.18 24.8197 196.532 25.352L198.201 24.2495ZM195.641 22.268C194.595 21.8589 193.377 21.6719 192.015 21.6719V23.6719C193.204 23.6719 194.16 23.8364 194.912 24.1305L195.641 22.268ZM192.015 21.6719H188.187V23.6719H192.015V21.6719ZM187.187 22.6719V54H189.187V22.6719H187.187ZM188.187 53H177.327V55H188.187V53ZM199.886 36.119L209.886 54.4783L211.643 53.5217L201.643 35.1623L199.886 36.119ZM210.765 53H198.968V55H210.765V53ZM199.851 53.5304L190.085 35.171L188.319 36.1102L198.085 54.4696L199.851 53.5304ZM189.202 36.6406H200.765V34.6406H189.202V36.6406ZM238.378 26.5L237.381 26.5797L237.455 27.5H238.378V26.5ZM236.913 23.4531L236.266 24.2157L236.272 24.2204L236.913 23.4531ZM230.233 22.7695L230.581 23.7073L230.59 23.7037L230.233 22.7695ZM228.671 23.8437L227.868 23.2474L227.868 23.2474L228.671 23.8437ZM228.144 25.4062L229.142 25.4602L229.143 25.4444L229.143 25.4285L228.144 25.4062ZM228.397 26.7148L227.503 27.1621L227.512 27.1802L227.522 27.1979L228.397 26.7148ZM229.374 27.75L228.797 28.567L228.805 28.5727L228.814 28.5783L229.374 27.75ZM233.534 29.2344L233.744 28.2565L233.735 28.2548L233.534 29.2344ZM236.815 29.9375L236.606 30.9153L236.608 30.9158L236.815 29.9375ZM242.499 31.793L242.061 32.6918L242.499 31.793ZM246.366 34.5078L245.646 35.2013L245.65 35.2058L246.366 34.5078ZM248.573 37.9844L247.633 38.3261L247.637 38.3345L248.573 37.9844ZM249.315 42.2031L250.316 42.2081L250.315 42.1946L249.315 42.2031ZM247.343 48.8828L248.157 49.4641L248.157 49.4641L247.343 48.8828ZM241.757 53.043L241.391 52.1121L241.39 52.1128L241.757 53.043ZM223.964 52.9258L223.593 53.8546L223.595 53.8552L223.964 52.9258ZM217.948 48.1797L217.114 48.7309L217.118 48.7367L217.948 48.1797ZM215.8 39.9375V38.9375H214.796L214.8 39.9414L215.8 39.9375ZM226.112 39.9375L227.111 39.8844L227.061 38.9375H226.112V39.9375ZM227.03 43.0234L226.194 43.5721L226.194 43.5721L227.03 43.0234ZM229.335 44.918L228.937 45.8352L228.941 45.8371L229.335 44.918ZM235.819 45.1328L236.164 46.0717L236.164 46.0717L235.819 45.1328ZM237.597 43.9414L238.38 44.5637L238.38 44.5636L237.597 43.9414ZM238.222 42.2031L239.221 42.2231L239.222 42.2025L239.221 42.1819L238.222 42.2031ZM237.616 40.6016L236.837 41.2289L236.847 41.2408L236.857 41.2524L237.616 40.6016ZM235.741 39.3516L235.344 40.2694L235.356 40.2742L235.741 39.3516ZM232.206 38.2969L232.42 37.3201L232.417 37.3194L232.206 38.2969ZM228.222 37.4375L228.01 38.4148L228.011 38.415L228.222 37.4375ZM219.843 33.5898L219.178 34.3365L219.183 34.3409L219.843 33.5898ZM216.815 26.1875L217.815 26.1917L217.815 26.1824L216.815 26.1875ZM218.847 19.5273L218.036 18.9425L218.035 18.9435L218.847 19.5273ZM224.569 15.0547L224.17 14.1381L224.168 14.1389L224.569 15.0547ZM241.366 15.0742L240.949 15.9832L240.949 15.9832L241.366 15.0742ZM246.815 19.6445L245.977 20.189L245.981 20.1954L246.815 19.6445ZM248.769 26.5V27.5H249.774L249.769 26.495L248.769 26.5ZM239.375 26.4203C239.253 24.8939 238.664 23.6132 237.554 22.6858L236.272 24.2204C236.907 24.7514 237.295 25.5019 237.381 26.5797L239.375 26.4203ZM237.56 22.6906C236.443 21.7426 234.856 21.3594 232.987 21.3594V23.3594C234.634 23.3594 235.665 23.7053 236.266 24.2156L237.56 22.6906ZM232.987 21.3594C231.797 21.3594 230.746 21.5033 229.877 21.8353L230.59 23.7037C231.153 23.4889 231.938 23.3594 232.987 23.3594V21.3594ZM229.886 21.8318C229.058 22.1383 228.354 22.5936 227.868 23.2474L229.474 24.4401C229.665 24.1825 230.002 23.9216 230.581 23.7073L229.886 21.8318ZM227.868 23.2474C227.402 23.8751 227.161 24.5981 227.144 25.384L229.143 25.4285C229.152 25.0425 229.263 24.7238 229.474 24.4401L227.868 23.2474ZM227.145 25.3523C227.111 25.9887 227.222 26.6004 227.503 27.1621L229.292 26.2676C229.182 26.0481 229.124 25.7873 229.142 25.4602L227.145 25.3523ZM227.522 27.1979C227.82 27.7375 228.262 28.189 228.797 28.567L229.951 26.933C229.601 26.686 229.392 26.4474 229.273 26.2318L227.522 27.1979ZM228.814 28.5783C229.346 28.9383 229.994 29.2457 230.736 29.5117L231.411 27.629C230.772 27.4001 230.288 27.1606 229.934 26.9217L228.814 28.5783ZM230.736 29.5117C231.482 29.7791 232.35 30.0119 233.333 30.2139L233.735 28.2548C232.817 28.0662 232.045 27.8563 231.411 27.629L230.736 29.5117ZM233.325 30.2122L236.606 30.9153L237.025 28.9597L233.744 28.2566L233.325 30.2122ZM236.608 30.9158C238.764 31.3722 240.576 31.968 242.061 32.6918L242.937 30.8941C241.271 30.0814 239.294 29.4403 237.023 28.9592L236.608 30.9158ZM242.061 32.6918C243.553 33.4192 244.74 34.2599 245.646 35.2013L247.087 33.8143C245.988 32.6724 244.597 31.7032 242.937 30.8941L242.061 32.6918ZM245.65 35.2058C246.559 36.1378 247.215 37.1766 247.633 38.3261L249.513 37.6426C248.994 36.214 248.179 34.9351 247.082 33.8098L245.65 35.2058ZM247.637 38.3345C248.073 39.5032 248.303 40.7925 248.315 42.2117L250.315 42.1946C250.301 40.5669 250.037 39.0437 249.51 37.6343L247.637 38.3345ZM248.315 42.1982C248.303 44.6587 247.691 46.6747 246.529 48.3016L248.157 49.4641C249.599 47.4451 250.302 45.008 250.315 42.2081L248.315 42.1982ZM246.529 48.3016C245.357 49.9429 243.663 51.2206 241.391 52.1121L242.122 53.9738C244.694 52.9643 246.725 51.4686 248.157 49.4641L246.529 48.3016ZM241.39 52.1128C239.128 53.0054 236.362 53.4688 233.065 53.4688V55.4688C236.54 55.4688 239.568 54.9816 242.124 53.9732L241.39 52.1128ZM233.065 53.4688C229.685 53.4688 226.781 52.9684 224.333 51.9963L223.595 53.8552C226.329 54.9404 229.493 55.4688 233.065 55.4688V53.4688ZM224.334 51.997C221.928 51.0368 220.09 49.5772 218.779 47.6227L217.118 48.7367C218.671 51.0531 220.844 52.7575 223.593 53.8546L224.334 51.997ZM218.783 47.6285C217.498 45.6846 216.812 43.1429 216.8 39.9336L214.8 39.9414C214.813 43.4248 215.559 46.3779 217.114 48.7309L218.783 47.6285ZM215.8 40.9375H226.112V38.9375H215.8V40.9375ZM225.114 39.9906C225.186 41.3509 225.53 42.5604 226.194 43.5721L227.866 42.4748C227.436 41.8198 227.169 40.972 227.111 39.8844L225.114 39.9906ZM226.194 43.5721C226.857 44.5818 227.784 45.3346 228.937 45.8352L229.733 44.0007C228.907 43.6419 228.297 43.1318 227.866 42.4748L226.194 43.5721ZM228.941 45.8371C230.096 46.3323 231.428 46.5625 232.909 46.5625V44.5625C231.63 44.5625 230.579 44.363 229.729 43.9988L228.941 45.8371ZM232.909 46.5625C234.143 46.5625 235.238 46.411 236.164 46.0717L235.475 44.1939C234.838 44.4275 233.993 44.5625 232.909 44.5625V46.5625ZM236.164 46.0717C237.069 45.7396 237.833 45.2507 238.38 44.5637L236.814 43.3192C236.553 43.6478 236.132 43.9531 235.475 44.1939L236.164 46.0717ZM238.38 44.5636C238.92 43.8836 239.204 43.0924 239.221 42.2231L237.222 42.1831C237.213 42.616 237.081 42.9836 236.814 43.3192L238.38 44.5636ZM239.221 42.1819C239.204 41.3435 238.92 40.5859 238.375 39.9508L236.857 41.2524C237.094 41.5286 237.214 41.8388 237.222 42.2244L239.221 42.1819ZM238.395 39.9742C237.87 39.3223 237.074 38.8245 236.127 38.4289L235.356 40.2742C236.154 40.6078 236.607 40.9433 236.837 41.2289L238.395 39.9742ZM236.138 38.4338C235.183 38.0202 233.935 37.6523 232.42 37.3201L231.992 39.2737C233.446 39.5925 234.555 39.9277 235.344 40.2693L236.138 38.4338ZM232.417 37.3194L228.433 36.46L228.011 38.415L231.995 39.2744L232.417 37.3194ZM228.434 36.4602C225.005 35.7165 222.384 34.4922 220.503 32.8388L219.183 34.3409C221.39 36.2812 224.355 37.622 228.01 38.4148L228.434 36.4602ZM220.508 32.8432C218.724 31.2533 217.803 29.0772 217.815 26.1917L215.815 26.1833C215.801 29.5478 216.899 32.3066 219.178 34.3365L220.508 32.8432ZM217.815 26.1824C217.803 23.8358 218.425 21.8261 219.659 20.1112L218.035 18.9435C216.534 21.0307 215.801 23.4611 215.815 26.1926L217.815 26.1824ZM219.658 20.1122C220.921 18.3608 222.678 16.9758 224.971 15.9705L224.168 14.1389C221.59 15.269 219.533 16.8658 218.036 18.9425L219.658 20.1122ZM224.969 15.9713C227.27 14.9678 229.936 14.4531 232.987 14.4531V12.4531C229.711 12.4531 226.765 13.0062 224.17 14.1381L224.969 15.9713ZM232.987 14.4531C236.107 14.4531 238.751 14.9753 240.949 15.9832L241.783 14.1652C239.268 13.0117 236.326 12.4531 232.987 12.4531V14.4531ZM240.949 15.9832C243.153 16.9936 244.815 18.3985 245.977 20.1889L247.654 19.1001C246.264 16.9583 244.293 15.3163 241.783 14.1652L240.949 15.9832ZM245.981 20.1954C247.151 21.9677 247.756 24.0582 247.769 26.505L249.769 26.495C249.755 23.7075 249.058 21.2276 247.65 19.0937L245.981 20.1954ZM248.769 25.5H238.378V27.5H248.769V25.5Z" fill="#9BBDCD"/>
<path d="M27.1406 29.5L26.1438 29.5797L26.2174 30.5H27.1406V29.5ZM25.6758 26.4531L25.0288 27.2157L25.0345 27.2204L25.6758 26.4531ZM18.9961 25.7695L19.3434 26.7073L19.3528 26.7037L18.9961 25.7695ZM17.4336 26.8437L16.6309 26.2474L16.6309 26.2474L17.4336 26.8437ZM16.9062 28.4062L17.9048 28.4602L17.9056 28.4444L17.906 28.4285L16.9062 28.4062ZM17.1602 29.7148L16.2657 30.1621L16.2748 30.1802L16.2846 30.1979L17.1602 29.7148ZM18.1367 30.75L17.56 31.567L17.5682 31.5727L17.5764 31.5783L18.1367 30.75ZM22.2969 32.2344L22.5064 31.2565L22.4982 31.2548L22.2969 32.2344ZM25.5781 32.9375L25.3686 33.9153L25.371 33.9158L25.5781 32.9375ZM31.2617 34.793L30.8234 35.6918L31.2617 34.793ZM35.1289 37.5078L34.4084 38.2013L34.4128 38.2058L35.1289 37.5078ZM37.3359 40.9844L36.3961 41.3261L36.3992 41.3345L37.3359 40.9844ZM38.0781 45.2031L39.0782 45.2081L39.0781 45.1946L38.0781 45.2031ZM36.1055 51.8828L36.9192 52.4641L36.9192 52.4641L36.1055 51.8828ZM30.5195 56.043L30.1542 55.1121L30.1525 55.1128L30.5195 56.043ZM12.7266 55.9258L12.356 56.8546L12.3576 56.8552L12.7266 55.9258ZM6.71094 51.1797L5.87654 51.7309L5.88045 51.7367L6.71094 51.1797ZM4.5625 42.9375V41.9375H3.5586L3.56251 42.9414L4.5625 42.9375ZM14.875 42.9375L15.8736 42.8844L15.8232 41.9375H14.875V42.9375ZM15.793 46.0234L14.9569 46.5721L14.9569 46.5721L15.793 46.0234ZM18.0977 47.918L17.6994 48.8352L17.7037 48.8371L18.0977 47.918ZM24.582 48.1328L24.9263 49.0717L24.9263 49.0717L24.582 48.1328ZM26.3594 46.9414L27.1422 47.5637L27.1422 47.5636L26.3594 46.9414ZM26.9844 45.2031L27.9842 45.2231L27.9846 45.2025L27.9841 45.1819L26.9844 45.2031ZM26.3789 43.6016L25.6002 44.2289L25.6097 44.2408L25.6196 44.2524L26.3789 43.6016ZM24.5039 42.3516L24.1067 43.2694L24.1183 43.2742L24.5039 42.3516ZM20.9688 41.2969L21.183 40.3201L21.1796 40.3194L20.9688 41.2969ZM16.9844 40.4375L16.7724 41.4148L16.7735 41.415L16.9844 40.4375ZM8.60547 36.5898L7.9402 37.3365L7.94527 37.3409L8.60547 36.5898ZM5.57812 29.1875L6.57816 29.1917L6.57811 29.1824L5.57812 29.1875ZM7.60938 22.5273L6.79826 21.9425L6.79752 21.9435L7.60938 22.5273ZM13.332 18.0547L12.9322 17.1381L12.9304 17.1389L13.332 18.0547ZM30.1289 18.0742L29.7121 18.9832L29.7121 18.9832L30.1289 18.0742ZM35.5781 22.6445L34.7393 23.189L34.7435 23.1954L35.5781 22.6445ZM37.5313 29.5V30.5H38.5362L38.5312 29.495L37.5313 29.5ZM28.1374 29.4203C28.0153 27.8939 27.4266 26.6132 26.3171 25.6858L25.0345 27.2204C25.6698 27.7514 26.0576 28.5019 26.1438 29.5797L28.1374 29.4203ZM26.3228 25.6906C25.2055 24.7426 23.6188 24.3594 21.75 24.3594V26.3594C23.3969 26.3594 24.4273 26.7053 25.0288 27.2156L26.3228 25.6906ZM21.75 24.3594C20.5595 24.3594 19.5091 24.5033 18.6394 24.8353L19.3528 26.7037C19.9154 26.4889 20.701 26.3594 21.75 26.3594V24.3594ZM18.6488 24.8318C17.8211 25.1383 17.1166 25.5936 16.6309 26.2474L18.2363 27.4401C18.4277 27.1825 18.7648 26.9216 19.3434 26.7073L18.6488 24.8318ZM16.6309 26.2474C16.1645 26.8751 15.924 27.5981 15.9065 28.384L17.906 28.4285C17.9146 28.0425 18.0256 27.7238 18.2363 27.4401L16.6309 26.2474ZM15.9077 28.3523C15.8733 28.9887 15.9849 29.6004 16.2657 30.1621L18.0546 29.2676C17.9448 29.0481 17.8871 28.7873 17.9048 28.4602L15.9077 28.3523ZM16.2846 30.1979C16.5823 30.7375 17.0246 31.189 17.56 31.567L18.7134 29.933C18.3634 29.686 18.1547 29.4474 18.0357 29.2318L16.2846 30.1979ZM17.5764 31.5783C18.1086 31.9383 18.7566 32.2457 19.4985 32.5117L20.1734 30.629C19.5351 30.4001 19.0502 30.1606 18.697 29.9217L17.5764 31.5783ZM19.4985 32.5117C20.2446 32.7791 21.1127 33.0119 22.0956 33.2139L22.4982 31.2548C21.58 31.0662 20.8075 30.8563 20.1734 30.629L19.4985 32.5117ZM22.0873 33.2122L25.3686 33.9153L25.7877 31.9597L22.5064 31.2566L22.0873 33.2122ZM25.371 33.9158C27.5263 34.3722 29.3391 34.968 30.8234 35.6918L31.7 33.8941C30.0333 33.0814 28.057 32.4403 25.7853 31.9592L25.371 33.9158ZM30.8234 35.6918C32.3153 36.4192 33.5023 37.2599 34.4084 38.2013L35.8494 36.8143C34.7503 35.6724 33.3592 34.7032 31.7 33.8941L30.8234 35.6918ZM34.4128 38.2058C35.3212 39.1378 35.9781 40.1766 36.3961 41.3261L38.2757 40.6426C37.7562 39.214 36.9418 37.9351 35.845 36.8098L34.4128 38.2058ZM36.3992 41.3345C36.836 42.5032 37.066 43.7925 37.0782 45.2117L39.0781 45.1946C39.0642 43.5669 38.7994 42.0437 38.2727 40.6343L36.3992 41.3345ZM37.0781 45.1982C37.066 47.6587 36.4538 49.6747 35.2917 51.3016L36.9192 52.4641C38.3613 50.4451 39.0643 48.008 39.0781 45.2081L37.0781 45.1982ZM35.2917 51.3016C34.1194 52.9429 32.4256 54.2206 30.1542 55.1121L30.8849 56.9738C33.4572 55.9643 35.4874 54.4686 36.9192 52.4641L35.2917 51.3016ZM30.1525 55.1128C27.8903 56.0054 25.1245 56.4688 21.8281 56.4688V58.4688C25.3025 58.4688 28.331 57.9816 30.8866 56.9732L30.1525 55.1128ZM21.8281 56.4688C18.4478 56.4688 15.5442 55.9684 13.0955 54.9963L12.3576 56.8552C15.0912 57.9404 18.2553 58.4688 21.8281 58.4688V56.4688ZM13.0971 54.997C10.6907 54.0368 8.85238 52.5772 7.54143 50.6227L5.88045 51.7367C7.43408 54.0531 9.60622 55.7575 12.356 56.8546L13.0971 54.997ZM7.54531 50.6285C6.26119 48.6846 5.57498 46.1429 5.56249 42.9336L3.56251 42.9414C3.57606 46.4248 4.32214 49.3779 5.87656 51.7309L7.54531 50.6285ZM4.5625 43.9375H14.875V41.9375H4.5625V43.9375ZM13.8764 42.9906C13.9488 44.3509 14.293 45.5604 14.9569 46.5721L16.629 45.4748C16.1992 44.8198 15.9314 43.972 15.8736 42.8844L13.8764 42.9906ZM14.9569 46.5721C15.6195 47.5818 16.5464 48.3346 17.6994 48.8352L18.4959 47.0007C17.6697 46.6419 17.0602 46.1318 16.629 45.4748L14.9569 46.5721ZM17.7037 48.8371C18.8591 49.3323 20.1909 49.5625 21.6719 49.5625V47.5625C20.3925 47.5625 19.3414 47.363 18.4916 46.9988L17.7037 48.8371ZM21.6719 49.5625C22.9055 49.5625 24.0008 49.411 24.9263 49.0717L24.2378 47.1939C23.6008 47.4275 22.756 47.5625 21.6719 47.5625V49.5625ZM24.9263 49.0717C25.832 48.7396 26.5961 48.2507 27.1422 47.5637L25.5766 46.3192C25.3153 46.6478 24.8945 46.9531 24.2378 47.1939L24.9263 49.0717ZM27.1422 47.5636C27.6828 46.8836 27.9668 46.0924 27.9842 45.2231L25.9846 45.1831C25.9759 45.616 25.8433 45.9836 25.5766 46.3192L27.1422 47.5636ZM27.9841 45.1819C27.9663 44.3435 27.6826 43.5859 27.1382 42.9508L25.6196 44.2524C25.8565 44.5286 25.9764 44.8388 25.9846 45.2244L27.9841 45.1819ZM27.1577 42.9742C26.6325 42.3223 25.8362 41.8245 24.8895 41.4289L24.1183 43.2742C24.9164 43.6078 25.3701 43.9433 25.6002 44.2289L27.1577 42.9742ZM24.9011 41.4338C23.9456 41.0202 22.6976 40.6523 21.183 40.3201L20.7545 42.2737C22.2086 42.5925 23.3175 42.9277 24.1067 43.2693L24.9011 41.4338ZM21.1796 40.3194L17.1952 39.46L16.7735 41.415L20.7579 42.2744L21.1796 40.3194ZM17.1964 39.4602C13.7678 38.7165 11.1468 37.4922 9.26567 35.8388L7.94527 37.3409C10.1527 39.2812 13.1176 40.622 16.7724 41.4148L17.1964 39.4602ZM9.27072 35.8432C7.48638 34.2533 6.56609 32.0772 6.57812 29.1917L4.57813 29.1833C4.56411 32.5478 5.66206 35.3066 7.94021 37.3365L9.27072 35.8432ZM6.57811 29.1824C6.56608 26.8358 7.18794 24.8261 8.42123 23.1112L6.79752 21.9435C5.29643 24.0307 4.56413 26.4611 4.57814 29.1926L6.57811 29.1824ZM8.42049 23.1122C9.68346 21.3608 11.4412 19.9758 13.7336 18.9705L12.9304 17.1389C10.3531 18.269 8.29571 19.8658 6.79826 21.9425L8.42049 23.1122ZM13.7318 18.9713C16.0325 17.9678 18.6985 17.4531 21.75 17.4531V15.4531C18.4734 15.4531 15.5274 16.0062 12.9322 17.1381L13.7318 18.9713ZM21.75 17.4531C24.8696 17.4531 27.5141 17.9753 29.7121 18.9832L30.5457 17.1652C28.0302 16.0117 25.0887 15.4531 21.75 15.4531V17.4531ZM29.7121 18.9832C31.9154 19.9936 33.5773 21.3985 34.7393 23.1889L36.417 22.1001C35.0269 19.9583 33.056 18.3163 30.5457 17.1652L29.7121 18.9832ZM34.7435 23.1954C35.9132 24.9677 36.5191 27.0582 36.5313 29.505L38.5312 29.495C38.5174 26.7075 37.8211 24.2276 36.4127 22.0937L34.7435 23.1954ZM37.5313 28.5H27.1406V30.5H37.5313V28.5ZM79.5684 17H80.5684V16H79.5684V17ZM79.5684 57V58H80.5684V57H79.5684ZM70.5059 57L69.6819 57.5667L69.9799 58H70.5059V57ZM56.0527 35.9844L56.8767 35.4177L56.5787 34.9844H56.0527V35.9844ZM55.8184 35.9844V34.9844H54.8184V35.9844H55.8184ZM55.8184 57V58H56.8184V57H55.8184ZM44.959 57H43.959V58H44.959V57ZM44.959 17V16H43.959V17H44.959ZM54.1777 17L55.005 16.4382L54.7074 16H54.1777V17ZM68.3965 37.9375L67.5692 38.4993L67.8668 38.9375H68.3965V37.9375ZM68.709 37.9375V38.9375H69.709V37.9375H68.709ZM68.709 17V16H67.709V17H68.709ZM78.5684 17V57H80.5684V17H78.5684ZM79.5684 56H70.5059V58H79.5684V56ZM71.3298 56.4333L56.8767 35.4177L55.2288 36.551L69.6819 57.5667L71.3298 56.4333ZM56.0527 34.9844H55.8184V36.9844H56.0527V34.9844ZM54.8184 35.9844V57H56.8184V35.9844H54.8184ZM55.8184 56H44.959V58H55.8184V56ZM45.959 57V17H43.959V57H45.959ZM44.959 18H54.1777V16H44.959V18ZM53.3505 17.5618L67.5692 38.4993L69.2238 37.3757L55.005 16.4382L53.3505 17.5618ZM68.3965 38.9375H68.709V36.9375H68.3965V38.9375ZM69.709 37.9375V17H67.709V37.9375H69.709ZM68.709 18H79.5684V16H68.709V18ZM85.8145 17V16H84.1444L84.9329 17.4722L85.8145 17ZM97.9238 17L98.8251 16.5667L98.5526 16H97.9238V17ZM105.736 33.25L104.835 33.6833L105.108 34.25H105.736V33.25ZM106.049 33.25V34.25H106.678L106.95 33.6833L106.049 33.25ZM113.861 17V16H113.233L112.96 16.5667L113.861 17ZM125.971 17L126.852 17.4722L127.641 16H125.971V17ZM111.283 44.4219L110.402 43.9497L110.283 44.1709V44.4219H111.283ZM111.283 57V58H112.283V57H111.283ZM100.502 57H99.502V58H100.502V57ZM100.502 44.4219H101.502V44.1709L101.383 43.9497L100.502 44.4219ZM85.8145 18H97.9238V16H85.8145V18ZM97.0226 17.4333L104.835 33.6833L106.638 32.8167L98.8251 16.5667L97.0226 17.4333ZM105.736 34.25H106.049V32.25H105.736V34.25ZM106.95 33.6833L114.763 17.4333L112.96 16.5667L105.148 32.8167L106.95 33.6833ZM113.861 18H125.971V16H113.861V18ZM125.089 16.5278L110.402 43.9497L112.165 44.894L126.852 17.4722L125.089 16.5278ZM110.283 44.4219V57H112.283V44.4219H110.283ZM111.283 56H100.502V58H111.283V56ZM101.502 57V44.4219H99.502V57H101.502ZM101.383 43.9497L86.696 16.5278L84.9329 17.4722L99.6204 44.894L101.383 43.9497ZM132.261 57H131.261V58H132.261V57ZM132.261 17V16H131.261V17H132.261ZM143.12 17H144.12V16H143.12V17ZM143.12 33.1719H142.12V34.1719H143.12V33.1719ZM143.667 33.1719V34.1719H144.169L144.469 33.7688L143.667 33.1719ZM155.698 17V16H155.196L154.896 16.4031L155.698 17ZM168.354 17L169.151 17.6045L170.369 16H168.354V17ZM154.839 34.8125L154.042 34.208L153.626 34.7568L153.99 35.3414L154.839 34.8125ZM168.667 57V58H170.469L169.516 56.4711L168.667 57ZM155.698 57L154.84 57.5138L155.132 58H155.698V57ZM146.714 42L147.572 41.4862L146.816 40.2237L145.92 41.3916L146.714 42ZM143.12 46.6875L142.327 46.0791L142.12 46.3483V46.6875H143.12ZM143.12 57V58H144.12V57H143.12ZM133.261 57V17H131.261V57H133.261ZM132.261 18H143.12V16H132.261V18ZM142.12 17V33.1719H144.12V17H142.12ZM143.12 34.1719H143.667V32.1719H143.12V34.1719ZM144.469 33.7688L156.501 17.5969L154.896 16.4031L142.865 32.575L144.469 33.7688ZM155.698 18H168.354V16H155.698V18ZM167.558 16.3955L154.042 34.208L155.636 35.417L169.151 17.6045L167.558 16.3955ZM153.99 35.3414L167.818 57.5289L169.516 56.4711L155.688 34.2836L153.99 35.3414ZM168.667 56H155.698V58H168.667V56ZM156.556 56.4862L147.572 41.4862L145.856 42.5138L154.84 57.5138L156.556 56.4862ZM145.92 41.3916L142.327 46.0791L143.914 47.2959L147.507 42.6084L145.92 41.3916ZM142.12 46.6875V57H144.12V46.6875H142.12ZM143.12 56H132.261V58H143.12V56ZM174.327 57H173.327V58H174.327V57ZM174.327 17V16H173.327V17H174.327ZM199.386 18.6211L198.949 19.5207L199.386 18.6211ZM204.581 23.2891L205.435 22.7689L205.435 22.7689L204.581 23.2891ZM204.522 37.8398L203.684 37.2954L203.681 37.2994L204.522 37.8398ZM199.19 42.293L198.79 41.3768L198.788 41.3777L199.19 42.293ZM180.89 43.7969H179.89V44.7969H180.89V43.7969ZM180.89 35.3594V34.3594H179.89V35.3594H180.89ZM192.276 34.8906L192.605 35.8352L192.613 35.8324L192.276 34.8906ZM194.366 33.3477L193.548 32.7721L193.541 32.7824L194.366 33.3477ZM194.366 27.8008L193.532 28.352L193.538 28.3607L193.543 28.3692L194.366 27.8008ZM192.276 26.1992L191.912 27.1305L191.92 27.1336L191.928 27.1366L192.276 26.1992ZM185.187 25.6719V24.6719H184.187V25.6719H185.187ZM185.187 57V58H186.187V57H185.187ZM197.765 38.6406L198.643 38.1623L198.359 37.6406H197.765V38.6406ZM207.765 57V58H209.448L208.643 56.5217L207.765 57ZM195.968 57L195.085 57.4696L195.367 58H195.968V57ZM186.202 38.6406V37.6406H184.538L185.319 39.1102L186.202 38.6406ZM175.327 57V17H173.327V57H175.327ZM174.327 18H191.593V16H174.327V18ZM191.593 18C194.44 18 196.883 18.5179 198.949 19.5207L199.822 17.7215C197.435 16.5628 194.683 16 191.593 16V18ZM198.949 19.5207C201.01 20.5212 202.594 21.9488 203.727 23.8092L205.435 22.7689C204.094 20.5669 202.214 18.8824 199.822 17.7215L198.949 19.5207ZM203.727 23.8092C204.851 25.6558 205.437 27.9029 205.437 30.5937H207.437C207.437 27.6075 206.785 24.9849 205.435 22.7689L203.727 23.8092ZM205.437 30.5937C205.437 33.3083 204.833 35.5242 203.684 37.2954L205.361 38.3842C206.764 36.2232 207.437 33.6084 207.437 30.5937H205.437ZM203.681 37.2994C202.532 39.0877 200.914 40.4474 198.79 41.3768L199.591 43.2091C202.05 42.1333 203.987 40.5242 205.364 38.3803L203.681 37.2994ZM198.788 41.3777C196.661 42.3134 194.141 42.7969 191.202 42.7969V44.7969C194.357 44.7969 197.163 44.2778 199.593 43.2083L198.788 41.3777ZM191.202 42.7969H180.89V44.7969H191.202V42.7969ZM181.89 43.7969V35.3594H179.89V43.7969H181.89ZM180.89 36.3594H189.015V34.3594H180.89V36.3594ZM189.015 36.3594C190.367 36.3594 191.572 36.1945 192.605 35.8351L191.948 33.9461C191.184 34.2117 190.215 34.3594 189.015 34.3594V36.3594ZM192.613 35.8324C193.695 35.446 194.574 34.8129 195.191 33.9129L193.541 32.7824C193.194 33.2887 192.681 33.6842 191.94 33.9489L192.613 35.8324ZM195.184 33.9231C195.83 33.0054 196.108 31.8678 196.108 30.5937H194.108C194.108 31.5853 193.892 32.2837 193.548 32.7722L195.184 33.9231ZM196.108 30.5937C196.108 29.3083 195.831 28.1611 195.189 27.2323L193.543 28.3692C193.891 28.8727 194.108 29.5875 194.108 30.5937H196.108ZM195.201 27.2495C194.589 26.3235 193.711 25.6655 192.625 25.2618L191.928 27.1366C192.664 27.41 193.18 27.8197 193.532 28.352L195.201 27.2495ZM192.641 25.268C191.595 24.8589 190.377 24.6719 189.015 24.6719V26.6719C190.204 26.6719 191.16 26.8364 191.912 27.1305L192.641 25.268ZM189.015 24.6719H185.187V26.6719H189.015V24.6719ZM184.187 25.6719V57H186.187V25.6719H184.187ZM185.187 56H174.327V58H185.187V56ZM196.886 39.119L206.886 57.4783L208.643 56.5217L198.643 38.1623L196.886 39.119ZM207.765 56H195.968V58H207.765V56ZM196.851 56.5304L187.085 38.171L185.319 39.1102L195.085 57.4696L196.851 56.5304ZM186.202 39.6406H197.765V37.6406H186.202V39.6406ZM235.378 29.5L234.381 29.5797L234.455 30.5H235.378V29.5ZM233.913 26.4531L233.266 27.2157L233.272 27.2204L233.913 26.4531ZM227.233 25.7695L227.581 26.7073L227.59 26.7037L227.233 25.7695ZM225.671 26.8437L224.868 26.2474L224.868 26.2474L225.671 26.8437ZM225.144 28.4062L226.142 28.4602L226.143 28.4444L226.143 28.4285L225.144 28.4062ZM225.397 29.7148L224.503 30.1621L224.512 30.1802L224.522 30.1979L225.397 29.7148ZM226.374 30.75L225.797 31.567L225.805 31.5727L225.814 31.5783L226.374 30.75ZM230.534 32.2344L230.744 31.2565L230.735 31.2548L230.534 32.2344ZM233.815 32.9375L233.606 33.9153L233.608 33.9158L233.815 32.9375ZM239.499 34.793L239.061 35.6918L239.499 34.793ZM243.366 37.5078L242.646 38.2013L242.65 38.2058L243.366 37.5078ZM245.573 40.9844L244.633 41.3261L244.637 41.3345L245.573 40.9844ZM246.315 45.2031L247.316 45.2081L247.315 45.1946L246.315 45.2031ZM244.343 51.8828L245.157 52.4641L245.157 52.4641L244.343 51.8828ZM238.757 56.043L238.391 55.1121L238.39 55.1128L238.757 56.043ZM220.964 55.9258L220.593 56.8546L220.595 56.8552L220.964 55.9258ZM214.948 51.1797L214.114 51.7309L214.118 51.7367L214.948 51.1797ZM212.8 42.9375V41.9375H211.796L211.8 42.9414L212.8 42.9375ZM223.112 42.9375L224.111 42.8844L224.061 41.9375H223.112V42.9375ZM224.03 46.0234L223.194 46.5721L223.194 46.5721L224.03 46.0234ZM226.335 47.918L225.937 48.8352L225.941 48.8371L226.335 47.918ZM232.819 48.1328L233.164 49.0717L233.164 49.0717L232.819 48.1328ZM234.597 46.9414L235.38 47.5637L235.38 47.5636L234.597 46.9414ZM235.222 45.2031L236.221 45.2231L236.222 45.2025L236.221 45.1819L235.222 45.2031ZM234.616 43.6016L233.837 44.2289L233.847 44.2408L233.857 44.2524L234.616 43.6016ZM232.741 42.3516L232.344 43.2694L232.356 43.2742L232.741 42.3516ZM229.206 41.2969L229.42 40.3201L229.417 40.3194L229.206 41.2969ZM225.222 40.4375L225.01 41.4148L225.011 41.415L225.222 40.4375ZM216.843 36.5898L216.178 37.3365L216.183 37.3409L216.843 36.5898ZM213.815 29.1875L214.815 29.1917L214.815 29.1824L213.815 29.1875ZM215.847 22.5273L215.036 21.9425L215.035 21.9435L215.847 22.5273ZM221.569 18.0547L221.17 17.1381L221.168 17.1389L221.569 18.0547ZM238.366 18.0742L237.949 18.9832L237.949 18.9832L238.366 18.0742ZM243.815 22.6445L242.977 23.189L242.981 23.1954L243.815 22.6445ZM245.769 29.5V30.5H246.774L246.769 29.495L245.769 29.5ZM236.375 29.4203C236.253 27.8939 235.664 26.6132 234.554 25.6858L233.272 27.2204C233.907 27.7514 234.295 28.5019 234.381 29.5797L236.375 29.4203ZM234.56 25.6906C233.443 24.7426 231.856 24.3594 229.987 24.3594V26.3594C231.634 26.3594 232.665 26.7053 233.266 27.2156L234.56 25.6906ZM229.987 24.3594C228.797 24.3594 227.746 24.5033 226.877 24.8353L227.59 26.7037C228.153 26.4889 228.938 26.3594 229.987 26.3594V24.3594ZM226.886 24.8318C226.058 25.1383 225.354 25.5936 224.868 26.2474L226.474 27.4401C226.665 27.1825 227.002 26.9216 227.581 26.7073L226.886 24.8318ZM224.868 26.2474C224.402 26.8751 224.161 27.5981 224.144 28.384L226.143 28.4285C226.152 28.0425 226.263 27.7238 226.474 27.4401L224.868 26.2474ZM224.145 28.3523C224.111 28.9887 224.222 29.6004 224.503 30.1621L226.292 29.2676C226.182 29.0481 226.124 28.7873 226.142 28.4602L224.145 28.3523ZM224.522 30.1979C224.82 30.7375 225.262 31.189 225.797 31.567L226.951 29.933C226.601 29.686 226.392 29.4474 226.273 29.2318L224.522 30.1979ZM225.814 31.5783C226.346 31.9383 226.994 32.2457 227.736 32.5117L228.411 30.629C227.772 30.4001 227.288 30.1606 226.934 29.9217L225.814 31.5783ZM227.736 32.5117C228.482 32.7791 229.35 33.0119 230.333 33.2139L230.735 31.2548C229.817 31.0662 229.045 30.8563 228.411 30.629L227.736 32.5117ZM230.325 33.2122L233.606 33.9153L234.025 31.9597L230.744 31.2566L230.325 33.2122ZM233.608 33.9158C235.764 34.3722 237.576 34.968 239.061 35.6918L239.937 33.8941C238.271 33.0814 236.294 32.4403 234.023 31.9592L233.608 33.9158ZM239.061 35.6918C240.553 36.4192 241.74 37.2599 242.646 38.2013L244.087 36.8143C242.988 35.6724 241.597 34.7032 239.937 33.8941L239.061 35.6918ZM242.65 38.2058C243.559 39.1378 244.215 40.1766 244.633 41.3261L246.513 40.6426C245.994 39.214 245.179 37.9351 244.082 36.8098L242.65 38.2058ZM244.637 41.3345C245.073 42.5032 245.303 43.7925 245.315 45.2117L247.315 45.1946C247.301 43.5669 247.037 42.0437 246.51 40.6343L244.637 41.3345ZM245.315 45.1982C245.303 47.6587 244.691 49.6747 243.529 51.3016L245.157 52.4641C246.599 50.4451 247.302 48.008 247.315 45.2081L245.315 45.1982ZM243.529 51.3016C242.357 52.9429 240.663 54.2206 238.391 55.1121L239.122 56.9738C241.694 55.9643 243.725 54.4686 245.157 52.4641L243.529 51.3016ZM238.39 55.1128C236.128 56.0054 233.362 56.4688 230.065 56.4688V58.4688C233.54 58.4688 236.568 57.9816 239.124 56.9732L238.39 55.1128ZM230.065 56.4688C226.685 56.4688 223.781 55.9684 221.333 54.9963L220.595 56.8552C223.329 57.9404 226.493 58.4688 230.065 58.4688V56.4688ZM221.334 54.997C218.928 54.0368 217.09 52.5772 215.779 50.6227L214.118 51.7367C215.671 54.0531 217.844 55.7575 220.593 56.8546L221.334 54.997ZM215.783 50.6285C214.498 48.6846 213.812 46.1429 213.8 42.9336L211.8 42.9414C211.813 46.4248 212.559 49.3779 214.114 51.7309L215.783 50.6285ZM212.8 43.9375H223.112V41.9375H212.8V43.9375ZM222.114 42.9906C222.186 44.3509 222.53 45.5604 223.194 46.5721L224.866 45.4748C224.436 44.8198 224.169 43.972 224.111 42.8844L222.114 42.9906ZM223.194 46.5721C223.857 47.5818 224.784 48.3346 225.937 48.8352L226.733 47.0007C225.907 46.6419 225.297 46.1318 224.866 45.4748L223.194 46.5721ZM225.941 48.8371C227.096 49.3323 228.428 49.5625 229.909 49.5625V47.5625C228.63 47.5625 227.579 47.363 226.729 46.9988L225.941 48.8371ZM229.909 49.5625C231.143 49.5625 232.238 49.411 233.164 49.0717L232.475 47.1939C231.838 47.4275 230.993 47.5625 229.909 47.5625V49.5625ZM233.164 49.0717C234.069 48.7396 234.833 48.2507 235.38 47.5637L233.814 46.3192C233.553 46.6478 233.132 46.9531 232.475 47.1939L233.164 49.0717ZM235.38 47.5636C235.92 46.8836 236.204 46.0924 236.221 45.2231L234.222 45.1831C234.213 45.616 234.081 45.9836 233.814 46.3192L235.38 47.5636ZM236.221 45.1819C236.204 44.3435 235.92 43.5859 235.375 42.9508L233.857 44.2524C234.094 44.5286 234.214 44.8388 234.222 45.2244L236.221 45.1819ZM235.395 42.9742C234.87 42.3223 234.074 41.8245 233.127 41.4289L232.356 43.2742C233.154 43.6078 233.607 43.9433 233.837 44.2289L235.395 42.9742ZM233.138 41.4338C232.183 41.0202 230.935 40.6523 229.42 40.3201L228.992 42.2737C230.446 42.5925 231.555 42.9277 232.344 43.2693L233.138 41.4338ZM229.417 40.3194L225.433 39.46L225.011 41.415L228.995 42.2744L229.417 40.3194ZM225.434 39.4602C222.005 38.7165 219.384 37.4922 217.503 35.8388L216.183 37.3409C218.39 39.2812 221.355 40.622 225.01 41.4148L225.434 39.4602ZM217.508 35.8432C215.724 34.2533 214.803 32.0772 214.815 29.1917L212.815 29.1833C212.801 32.5478 213.899 35.3066 216.178 37.3365L217.508 35.8432ZM214.815 29.1824C214.803 26.8358 215.425 24.8261 216.659 23.1112L215.035 21.9435C213.534 24.0307 212.801 26.4611 212.815 29.1926L214.815 29.1824ZM216.658 23.1122C217.921 21.3608 219.678 19.9758 221.971 18.9705L221.168 17.1389C218.59 18.269 216.533 19.8658 215.036 21.9425L216.658 23.1122ZM221.969 18.9713C224.27 17.9678 226.936 17.4531 229.987 17.4531V15.4531C226.711 15.4531 223.765 16.0062 221.17 17.1381L221.969 18.9713ZM229.987 17.4531C233.107 17.4531 235.751 17.9753 237.949 18.9832L238.783 17.1652C236.268 16.0117 233.326 15.4531 229.987 15.4531V17.4531ZM237.949 18.9832C240.153 19.9936 241.815 21.3985 242.977 23.1889L244.654 22.1001C243.264 19.9583 241.293 18.3163 238.783 17.1652L237.949 18.9832ZM242.981 23.1954C244.151 24.9677 244.756 27.0582 244.769 29.505L246.769 29.495C246.755 26.7075 246.058 24.2276 244.65 22.0937L242.981 23.1954ZM245.769 28.5H235.378V30.5H245.769V28.5Z" fill="#9BBDCD"/>
<path d="M24.1406 32.5C24.0365 31.1979 23.5482 30.1823 22.6758 29.4531C21.8164 28.724 20.5078 28.3594 18.75 28.3594C17.6302 28.3594 16.7122 28.4961 15.9961 28.7695C15.293 29.0299 14.7721 29.388 14.4336 29.8437C14.0951 30.2995 13.9193 30.8203 13.9062 31.4062C13.8802 31.888 13.9648 32.3242 14.1602 32.7148C14.3685 33.0924 14.694 33.4375 15.1367 33.75C15.5794 34.0495 16.1458 34.3229 16.8359 34.5703C17.526 34.8177 18.3464 35.0391 19.2969 35.2344L22.5781 35.9375C24.7917 36.4062 26.6862 37.0247 28.2617 37.793C29.8372 38.5612 31.1263 39.4661 32.1289 40.5078C33.1315 41.5365 33.8672 42.6953 34.3359 43.9844C34.8177 45.2734 35.0651 46.6797 35.0781 48.2031C35.0651 50.8333 34.4076 53.0599 33.1055 54.8828C31.8034 56.7057 29.9414 58.0924 27.5195 59.043C25.1107 59.9935 22.2135 60.4688 18.8281 60.4688C15.3516 60.4688 12.3177 59.9544 9.72656 58.9258C7.14844 57.8971 5.14323 56.3151 3.71094 54.1797C2.29167 52.0312 1.57552 49.2839 1.5625 45.9375H11.875C11.9401 47.1615 12.2461 48.1901 12.793 49.0234C13.3398 49.8568 14.1081 50.4883 15.0977 50.918C16.1003 51.3477 17.2917 51.5625 18.6719 51.5625C19.8307 51.5625 20.8008 51.4193 21.582 51.1328C22.3633 50.8464 22.9557 50.4492 23.3594 49.9414C23.763 49.4336 23.9714 48.8542 23.9844 48.2031C23.9714 47.5911 23.7695 47.0573 23.3789 46.6016C23.0013 46.1328 22.3763 45.7161 21.5039 45.3516C20.6315 44.974 19.4531 44.6224 17.9688 44.2969L13.9844 43.4375C10.4427 42.6693 7.64974 41.3867 5.60547 39.5898C3.57422 37.7799 2.5651 35.3125 2.57812 32.1875C2.5651 29.6484 3.24219 27.4284 4.60938 25.5273C5.98958 23.6133 7.89714 22.1224 10.332 21.0547C12.7799 19.987 15.5859 19.4531 18.75 19.4531C21.9792 19.4531 24.7721 19.9935 27.1289 21.0742C29.4857 22.1549 31.3021 23.6784 32.5781 25.6445C33.8672 27.5977 34.5182 29.8828 34.5313 32.5H24.1406ZM76.5684 20V60H67.5059L53.0527 38.9844H52.8184V60H41.959V20H51.1777L65.3965 40.9375H65.709V20H76.5684ZM82.8145 20H94.9238L102.736 36.25H103.049L110.861 20H122.971L108.283 47.4219V60H97.502V47.4219L82.8145 20ZM129.261 60V20H140.12V36.1719H140.667L152.698 20H165.354L151.839 37.8125L165.667 60H152.698L143.714 45L140.12 49.6875V60H129.261ZM171.327 60V20H188.593C191.562 20 194.159 20.5404 196.386 21.6211C198.612 22.7018 200.344 24.2578 201.581 26.2891C202.818 28.3203 203.437 30.7552 203.437 33.5937C203.437 36.4583 202.799 38.8737 201.522 40.8398C200.259 42.806 198.482 44.2904 196.19 45.293C193.912 46.2956 191.249 46.7969 188.202 46.7969H177.89V38.3594H186.015C187.291 38.3594 188.378 38.2031 189.276 37.8906C190.188 37.5651 190.884 37.0508 191.366 36.3477C191.861 35.6445 192.108 34.7266 192.108 33.5937C192.108 32.4479 191.861 31.5169 191.366 30.8008C190.884 30.0716 190.188 29.5378 189.276 29.1992C188.378 28.8477 187.291 28.6719 186.015 28.6719H182.187V60H171.327ZM194.765 41.6406L204.765 60H192.968L183.202 41.6406H194.765ZM232.378 32.5C232.274 31.1979 231.785 30.1823 230.913 29.4531C230.054 28.724 228.745 28.3594 226.987 28.3594C225.868 28.3594 224.95 28.4961 224.233 28.7695C223.53 29.0299 223.009 29.388 222.671 29.8437C222.332 30.2995 222.157 30.8203 222.144 31.4062C222.118 31.888 222.202 32.3242 222.397 32.7148C222.606 33.0924 222.931 33.4375 223.374 33.75C223.817 34.0495 224.383 34.3229 225.073 34.5703C225.763 34.8177 226.584 35.0391 227.534 35.2344L230.815 35.9375C233.029 36.4062 234.924 37.0247 236.499 37.793C238.075 38.5612 239.364 39.4661 240.366 40.5078C241.369 41.5365 242.104 42.6953 242.573 43.9844C243.055 45.2734 243.302 46.6797 243.315 48.2031C243.302 50.8333 242.645 53.0599 241.343 54.8828C240.041 56.7057 238.179 58.0924 235.757 59.043C233.348 59.9935 230.451 60.4688 227.065 60.4688C223.589 60.4688 220.555 59.9544 217.964 58.9258C215.386 57.8971 213.381 56.3151 211.948 54.1797C210.529 52.0312 209.813 49.2839 209.8 45.9375H220.112C220.177 47.1615 220.483 48.1901 221.03 49.0234C221.577 49.8568 222.345 50.4883 223.335 50.918C224.338 51.3477 225.529 51.5625 226.909 51.5625C228.068 51.5625 229.038 51.4193 229.819 51.1328C230.601 50.8464 231.193 50.4492 231.597 49.9414C232 49.4336 232.209 48.8542 232.222 48.2031C232.209 47.5911 232.007 47.0573 231.616 46.6016C231.239 46.1328 230.614 45.7161 229.741 45.3516C228.869 44.974 227.69 44.6224 226.206 44.2969L222.222 43.4375C218.68 42.6693 215.887 41.3867 213.843 39.5898C211.812 37.7799 210.802 35.3125 210.815 32.1875C210.802 29.6484 211.479 27.4284 212.847 25.5273C214.227 23.6133 216.134 22.1224 218.569 21.0547C221.017 19.987 223.823 19.4531 226.987 19.4531C230.216 19.4531 233.009 19.9935 235.366 21.0742C237.723 22.1549 239.539 23.6784 240.815 25.6445C242.104 27.5977 242.756 29.8828 242.769 32.5H232.378Z" fill="#9BBDCD"/>
</svg>
